%TF.GenerationSoftware,KiCad,Pcbnew,6.0.1-79c1e3a40b~116~ubuntu20.04.1*%
%TF.CreationDate,2022-07-06T20:39:23+09:00*%
%TF.ProjectId,test-rectenna-2p4g-pcb,74657374-2d72-4656-9374-656e6e612d32,1.0*%
%TF.SameCoordinates,Original*%
%TF.FileFunction,Soldermask,Top*%
%TF.FilePolarity,Negative*%
%FSLAX46Y46*%
G04 Gerber Fmt 4.6, Leading zero omitted, Abs format (unit mm)*
G04 Created by KiCad (PCBNEW 6.0.1-79c1e3a40b~116~ubuntu20.04.1) date 2022-07-06 20:39:23*
%MOMM*%
%LPD*%
G01*
G04 APERTURE LIST*
%ADD10R,1.900000X0.800000*%
%ADD11R,1.800000X1.800000*%
%ADD12C,1.800000*%
G04 APERTURE END LIST*
D10*
%TO.C,D151*%
X119750000Y-167600000D03*
X119750000Y-169500000D03*
X122750000Y-168550000D03*
%TD*%
%TO.C,D141*%
X122750000Y-178550000D03*
X119750000Y-179500000D03*
X119750000Y-177600000D03*
%TD*%
%TO.C,D131*%
X119750000Y-157550000D03*
X119750000Y-159450000D03*
X122750000Y-158500000D03*
%TD*%
%TO.C,D121*%
X119750000Y-147550000D03*
X119750000Y-149450000D03*
X122750000Y-148500000D03*
%TD*%
%TO.C,D111*%
X119750000Y-137550000D03*
X119750000Y-139450000D03*
X122750000Y-138500000D03*
%TD*%
%TO.C,D101*%
X122750000Y-128500000D03*
X119750000Y-129450000D03*
X119750000Y-127550000D03*
%TD*%
%TO.C,D091*%
X119750000Y-117550000D03*
X119750000Y-119450000D03*
X122750000Y-118500000D03*
%TD*%
%TO.C,D081*%
X119750000Y-107500000D03*
X119750000Y-109400000D03*
X122750000Y-108450000D03*
%TD*%
%TO.C,D071*%
X119750000Y-97600000D03*
X119750000Y-99500000D03*
X122750000Y-98550000D03*
%TD*%
%TO.C,D061*%
X119750000Y-87550000D03*
X119750000Y-89450000D03*
X122750000Y-88500000D03*
%TD*%
%TO.C,D051*%
X119750000Y-77600000D03*
X119750000Y-79500000D03*
X122750000Y-78550000D03*
%TD*%
%TO.C,D041*%
X122750000Y-68500000D03*
X119750000Y-69450000D03*
X119750000Y-67550000D03*
%TD*%
%TO.C,D031*%
X119750000Y-57550000D03*
X119750000Y-59450000D03*
X122750000Y-58500000D03*
%TD*%
%TO.C,D021*%
X119750000Y-47600000D03*
X119750000Y-49500000D03*
X122750000Y-48550000D03*
%TD*%
%TO.C,D011*%
X122750000Y-38500000D03*
X119750000Y-39450000D03*
X119750000Y-37550000D03*
%TD*%
%TO.C,D001*%
X119750000Y-27550000D03*
X119750000Y-29450000D03*
X122750000Y-28500000D03*
%TD*%
D11*
%TO.C,D022*%
X120000000Y-53500000D03*
D12*
X122540000Y-53500000D03*
%TD*%
D11*
%TO.C,D092*%
X119975000Y-123500000D03*
D12*
X122515000Y-123500000D03*
%TD*%
D11*
%TO.C,D112*%
X119975000Y-143500000D03*
D12*
X122515000Y-143500000D03*
%TD*%
D11*
%TO.C,D102*%
X119975000Y-133500000D03*
D12*
X122515000Y-133500000D03*
%TD*%
D11*
%TO.C,D132*%
X119975000Y-163500000D03*
D12*
X122515000Y-163500000D03*
%TD*%
D11*
%TO.C,D152*%
X120000000Y-173500000D03*
D12*
X122540000Y-173500000D03*
%TD*%
D11*
%TO.C,D002*%
X119975000Y-33500000D03*
D12*
X122515000Y-33500000D03*
%TD*%
D11*
%TO.C,D062*%
X119975000Y-93500000D03*
D12*
X122515000Y-93500000D03*
%TD*%
D11*
%TO.C,D072*%
X119975000Y-103500000D03*
D12*
X122515000Y-103500000D03*
%TD*%
D11*
%TO.C,D042*%
X119975000Y-73500000D03*
D12*
X122515000Y-73500000D03*
%TD*%
D11*
%TO.C,D012*%
X119960000Y-43500000D03*
D12*
X122500000Y-43500000D03*
%TD*%
D11*
%TO.C,D032*%
X120000000Y-63500000D03*
D12*
X122540000Y-63500000D03*
%TD*%
%TO.C,D122*%
X122515000Y-153500000D03*
D11*
X119975000Y-153500000D03*
%TD*%
%TO.C,D082*%
X119975000Y-113500000D03*
D12*
X122515000Y-113500000D03*
%TD*%
D11*
%TO.C,D052*%
X119975000Y-83500000D03*
D12*
X122515000Y-83500000D03*
%TD*%
D11*
%TO.C,D142*%
X120000000Y-183500000D03*
D12*
X122540000Y-183500000D03*
%TD*%
M02*
