%TF.GenerationSoftware,KiCad,Pcbnew,6.0.1-79c1e3a40b~116~ubuntu20.04.1*%
%TF.CreationDate,2022-07-06T20:39:22+09:00*%
%TF.ProjectId,test-rectenna-2p4g-pcb,74657374-2d72-4656-9374-656e6e612d32,1.0*%
%TF.SameCoordinates,Original*%
%TF.FileFunction,Copper,L1,Top*%
%TF.FilePolarity,Positive*%
%FSLAX46Y46*%
G04 Gerber Fmt 4.6, Leading zero omitted, Abs format (unit mm)*
G04 Created by KiCad (PCBNEW 6.0.1-79c1e3a40b~116~ubuntu20.04.1) date 2022-07-06 20:39:22*
%MOMM*%
%LPD*%
G01*
G04 APERTURE LIST*
%TA.AperFunction,SMDPad,CuDef*%
%ADD10R,1.900000X0.800000*%
%TD*%
%TA.AperFunction,ComponentPad*%
%ADD11R,1.800000X1.800000*%
%TD*%
%TA.AperFunction,ComponentPad*%
%ADD12C,1.800000*%
%TD*%
%TA.AperFunction,Conductor*%
%ADD13C,0.635000*%
%TD*%
G04 APERTURE END LIST*
D10*
%TO.P,D151,*%
%TO.N,*%
X119750000Y-167600000D03*
%TO.P,D151,1,K*%
%TO.N,Net-(D151-Pad1)*%
X119750000Y-169500000D03*
%TO.P,D151,2,A*%
%TO.N,Net-(D151-Pad2)*%
X122750000Y-168550000D03*
%TD*%
%TO.P,D141,2,A*%
%TO.N,Net-(D141-Pad2)*%
X122750000Y-178550000D03*
%TO.P,D141,1,K*%
%TO.N,Net-(D141-Pad1)*%
X119750000Y-179500000D03*
%TO.P,D141,*%
%TO.N,*%
X119750000Y-177600000D03*
%TD*%
%TO.P,D131,*%
%TO.N,*%
X119750000Y-157550000D03*
%TO.P,D131,1,K*%
%TO.N,Net-(D131-Pad1)*%
X119750000Y-159450000D03*
%TO.P,D131,2,A*%
%TO.N,Net-(D131-Pad2)*%
X122750000Y-158500000D03*
%TD*%
%TO.P,D121,*%
%TO.N,*%
X119750000Y-147550000D03*
%TO.P,D121,1,K*%
%TO.N,Net-(D121-Pad1)*%
X119750000Y-149450000D03*
%TO.P,D121,2,A*%
%TO.N,Net-(D121-Pad2)*%
X122750000Y-148500000D03*
%TD*%
%TO.P,D111,*%
%TO.N,*%
X119750000Y-137550000D03*
%TO.P,D111,1,K*%
%TO.N,Net-(D111-Pad1)*%
X119750000Y-139450000D03*
%TO.P,D111,2,A*%
%TO.N,Net-(D111-Pad2)*%
X122750000Y-138500000D03*
%TD*%
%TO.P,D101,2,A*%
%TO.N,Net-(D101-Pad2)*%
X122750000Y-128500000D03*
%TO.P,D101,1,K*%
%TO.N,Net-(D101-Pad1)*%
X119750000Y-129450000D03*
%TO.P,D101,*%
%TO.N,*%
X119750000Y-127550000D03*
%TD*%
%TO.P,D091,*%
%TO.N,*%
X119750000Y-117550000D03*
%TO.P,D091,1,K*%
%TO.N,Net-(D091-Pad1)*%
X119750000Y-119450000D03*
%TO.P,D091,2,A*%
%TO.N,Net-(D091-Pad2)*%
X122750000Y-118500000D03*
%TD*%
%TO.P,D081,*%
%TO.N,*%
X119750000Y-107500000D03*
%TO.P,D081,1,K*%
%TO.N,Net-(D081-Pad1)*%
X119750000Y-109400000D03*
%TO.P,D081,2,A*%
%TO.N,Net-(D081-Pad2)*%
X122750000Y-108450000D03*
%TD*%
%TO.P,D071,*%
%TO.N,*%
X119750000Y-97600000D03*
%TO.P,D071,1,K*%
%TO.N,Net-(D071-Pad1)*%
X119750000Y-99500000D03*
%TO.P,D071,2,A*%
%TO.N,Net-(D071-Pad2)*%
X122750000Y-98550000D03*
%TD*%
%TO.P,D061,*%
%TO.N,*%
X119750000Y-87550000D03*
%TO.P,D061,1,K*%
%TO.N,Net-(D061-Pad1)*%
X119750000Y-89450000D03*
%TO.P,D061,2,A*%
%TO.N,Net-(D061-Pad2)*%
X122750000Y-88500000D03*
%TD*%
%TO.P,D051,*%
%TO.N,*%
X119750000Y-77600000D03*
%TO.P,D051,1,K*%
%TO.N,Net-(D051-Pad1)*%
X119750000Y-79500000D03*
%TO.P,D051,2,A*%
%TO.N,Net-(D051-Pad2)*%
X122750000Y-78550000D03*
%TD*%
%TO.P,D041,2,A*%
%TO.N,Net-(D042-Pad2)*%
X122750000Y-68500000D03*
%TO.P,D041,1,K*%
%TO.N,Net-(D042-Pad1)*%
X119750000Y-69450000D03*
%TO.P,D041,*%
%TO.N,*%
X119750000Y-67550000D03*
%TD*%
%TO.P,D031,*%
%TO.N,*%
X119750000Y-57550000D03*
%TO.P,D031,1,K*%
%TO.N,Net-(D031-Pad1)*%
X119750000Y-59450000D03*
%TO.P,D031,2,A*%
%TO.N,Net-(D031-Pad2)*%
X122750000Y-58500000D03*
%TD*%
%TO.P,D021,*%
%TO.N,*%
X119750000Y-47600000D03*
%TO.P,D021,1,K*%
%TO.N,Net-(D021-Pad1)*%
X119750000Y-49500000D03*
%TO.P,D021,2,A*%
%TO.N,Net-(D021-Pad2)*%
X122750000Y-48550000D03*
%TD*%
%TO.P,D011,2,A*%
%TO.N,Net-(D011-Pad2)*%
X122750000Y-38500000D03*
%TO.P,D011,1,K*%
%TO.N,Net-(D011-Pad1)*%
X119750000Y-39450000D03*
%TO.P,D011,*%
%TO.N,*%
X119750000Y-37550000D03*
%TD*%
%TO.P,D001,*%
%TO.N,*%
X119750000Y-27550000D03*
%TO.P,D001,1,K*%
%TO.N,Net-(D001-Pad1)*%
X119750000Y-29450000D03*
%TO.P,D001,2,A*%
%TO.N,Net-(D001-Pad2)*%
X122750000Y-28500000D03*
%TD*%
D11*
%TO.P,D022,1,K*%
%TO.N,Net-(D021-Pad1)*%
X120000000Y-53500000D03*
D12*
%TO.P,D022,2,A*%
%TO.N,Net-(D021-Pad2)*%
X122540000Y-53500000D03*
%TD*%
D11*
%TO.P,D092,1,K*%
%TO.N,Net-(D091-Pad1)*%
X119975000Y-123500000D03*
D12*
%TO.P,D092,2,A*%
%TO.N,Net-(D091-Pad2)*%
X122515000Y-123500000D03*
%TD*%
D11*
%TO.P,D112,1,K*%
%TO.N,Net-(D111-Pad1)*%
X119975000Y-143500000D03*
D12*
%TO.P,D112,2,A*%
%TO.N,Net-(D111-Pad2)*%
X122515000Y-143500000D03*
%TD*%
D11*
%TO.P,D102,1,K*%
%TO.N,Net-(D101-Pad1)*%
X119975000Y-133500000D03*
D12*
%TO.P,D102,2,A*%
%TO.N,Net-(D101-Pad2)*%
X122515000Y-133500000D03*
%TD*%
D11*
%TO.P,D132,1,K*%
%TO.N,Net-(D131-Pad1)*%
X119975000Y-163500000D03*
D12*
%TO.P,D132,2,A*%
%TO.N,Net-(D131-Pad2)*%
X122515000Y-163500000D03*
%TD*%
D11*
%TO.P,D152,1,K*%
%TO.N,Net-(D151-Pad1)*%
X120000000Y-173500000D03*
D12*
%TO.P,D152,2,A*%
%TO.N,Net-(D151-Pad2)*%
X122540000Y-173500000D03*
%TD*%
D11*
%TO.P,D002,1,K*%
%TO.N,Net-(D001-Pad1)*%
X119975000Y-33500000D03*
D12*
%TO.P,D002,2,A*%
%TO.N,Net-(D001-Pad2)*%
X122515000Y-33500000D03*
%TD*%
D11*
%TO.P,D062,1,K*%
%TO.N,Net-(D061-Pad1)*%
X119975000Y-93500000D03*
D12*
%TO.P,D062,2,A*%
%TO.N,Net-(D061-Pad2)*%
X122515000Y-93500000D03*
%TD*%
D11*
%TO.P,D072,1,K*%
%TO.N,Net-(D071-Pad1)*%
X119975000Y-103500000D03*
D12*
%TO.P,D072,2,A*%
%TO.N,Net-(D071-Pad2)*%
X122515000Y-103500000D03*
%TD*%
D11*
%TO.P,D042,1,K*%
%TO.N,Net-(D042-Pad1)*%
X119975000Y-73500000D03*
D12*
%TO.P,D042,2,A*%
%TO.N,Net-(D042-Pad2)*%
X122515000Y-73500000D03*
%TD*%
D11*
%TO.P,D012,1,K*%
%TO.N,Net-(D011-Pad1)*%
X119960000Y-43500000D03*
D12*
%TO.P,D012,2,A*%
%TO.N,Net-(D011-Pad2)*%
X122500000Y-43500000D03*
%TD*%
D11*
%TO.P,D032,1,K*%
%TO.N,Net-(D031-Pad1)*%
X120000000Y-63500000D03*
D12*
%TO.P,D032,2,A*%
%TO.N,Net-(D031-Pad2)*%
X122540000Y-63500000D03*
%TD*%
%TO.P,D122,2,A*%
%TO.N,Net-(D121-Pad2)*%
X122515000Y-153500000D03*
D11*
%TO.P,D122,1,K*%
%TO.N,Net-(D121-Pad1)*%
X119975000Y-153500000D03*
%TD*%
%TO.P,D082,1,K*%
%TO.N,Net-(D081-Pad1)*%
X119975000Y-113500000D03*
D12*
%TO.P,D082,2,A*%
%TO.N,Net-(D081-Pad2)*%
X122515000Y-113500000D03*
%TD*%
D11*
%TO.P,D052,1,K*%
%TO.N,Net-(D051-Pad1)*%
X119975000Y-83500000D03*
D12*
%TO.P,D052,2,A*%
%TO.N,Net-(D051-Pad2)*%
X122515000Y-83500000D03*
%TD*%
D11*
%TO.P,D142,1,K*%
%TO.N,Net-(D141-Pad1)*%
X120000000Y-183500000D03*
D12*
%TO.P,D142,2,A*%
%TO.N,Net-(D141-Pad2)*%
X122540000Y-183500000D03*
%TD*%
D13*
%TO.N,Net-(D141-Pad2)*%
X122540000Y-183500000D02*
X122540000Y-178760000D01*
X122540000Y-178760000D02*
X122750000Y-178550000D01*
%TO.N,Net-(D141-Pad1)*%
X120000000Y-183500000D02*
X120000000Y-179750000D01*
X120000000Y-179750000D02*
X119750000Y-179500000D01*
%TO.N,Net-(D151-Pad2)*%
X122540000Y-173500000D02*
X122540000Y-168760000D01*
X122540000Y-168760000D02*
X122750000Y-168550000D01*
%TO.N,Net-(D151-Pad1)*%
X120000000Y-173500000D02*
X120000000Y-169750000D01*
X120000000Y-169750000D02*
X119750000Y-169500000D01*
%TO.N,Net-(D131-Pad2)*%
X122515000Y-163500000D02*
X122515000Y-158735000D01*
X122515000Y-158735000D02*
X122750000Y-158500000D01*
%TO.N,Net-(D131-Pad1)*%
X119975000Y-163500000D02*
X119975000Y-159675000D01*
X119975000Y-159675000D02*
X119750000Y-159450000D01*
%TO.N,Net-(D121-Pad2)*%
X122515000Y-153500000D02*
X122515000Y-148735000D01*
X122515000Y-148735000D02*
X122750000Y-148500000D01*
%TO.N,Net-(D121-Pad1)*%
X119975000Y-153500000D02*
X119975000Y-149675000D01*
X119975000Y-149675000D02*
X119750000Y-149450000D01*
%TO.N,Net-(D111-Pad2)*%
X122515000Y-143500000D02*
X122515000Y-138735000D01*
X122515000Y-138735000D02*
X122750000Y-138500000D01*
%TO.N,Net-(D111-Pad1)*%
X119975000Y-143500000D02*
X119975000Y-139675000D01*
X119975000Y-139675000D02*
X119750000Y-139450000D01*
%TO.N,Net-(D101-Pad2)*%
X122515000Y-133500000D02*
X122515000Y-128735000D01*
X122515000Y-128735000D02*
X122750000Y-128500000D01*
%TO.N,Net-(D101-Pad1)*%
X119975000Y-133500000D02*
X119975000Y-129675000D01*
X119975000Y-129675000D02*
X119750000Y-129450000D01*
%TO.N,Net-(D091-Pad2)*%
X122515000Y-123500000D02*
X122515000Y-118735000D01*
X122515000Y-118735000D02*
X122750000Y-118500000D01*
%TO.N,Net-(D091-Pad1)*%
X119975000Y-123500000D02*
X119975000Y-119675000D01*
X119975000Y-119675000D02*
X119750000Y-119450000D01*
%TO.N,Net-(D081-Pad2)*%
X122515000Y-113500000D02*
X122515000Y-108685000D01*
X122515000Y-108685000D02*
X122750000Y-108450000D01*
%TO.N,Net-(D081-Pad1)*%
X119975000Y-113500000D02*
X119975000Y-109625000D01*
X119975000Y-109625000D02*
X119750000Y-109400000D01*
%TO.N,Net-(D071-Pad2)*%
X122515000Y-103500000D02*
X122515000Y-98785000D01*
X122515000Y-98785000D02*
X122750000Y-98550000D01*
%TO.N,Net-(D071-Pad1)*%
X119975000Y-103500000D02*
X119975000Y-99725000D01*
X119975000Y-99725000D02*
X119750000Y-99500000D01*
%TO.N,Net-(D061-Pad2)*%
X122515000Y-93500000D02*
X122515000Y-88735000D01*
X122515000Y-88735000D02*
X122750000Y-88500000D01*
%TO.N,Net-(D061-Pad1)*%
X119975000Y-93500000D02*
X119975000Y-89675000D01*
X119975000Y-89675000D02*
X119750000Y-89450000D01*
%TO.N,Net-(D051-Pad2)*%
X122515000Y-83500000D02*
X122515000Y-78785000D01*
X122515000Y-78785000D02*
X122750000Y-78550000D01*
%TO.N,Net-(D051-Pad1)*%
X119975000Y-83500000D02*
X119975000Y-79725000D01*
X119975000Y-79725000D02*
X119750000Y-79500000D01*
%TO.N,Net-(D042-Pad2)*%
X122515000Y-73500000D02*
X122515000Y-68735000D01*
X122515000Y-68735000D02*
X122750000Y-68500000D01*
%TO.N,Net-(D042-Pad1)*%
X119975000Y-73500000D02*
X119975000Y-69675000D01*
X119975000Y-69675000D02*
X119750000Y-69450000D01*
%TO.N,Net-(D031-Pad2)*%
X122540000Y-63500000D02*
X122540000Y-58710000D01*
X122540000Y-58710000D02*
X122750000Y-58500000D01*
%TO.N,Net-(D031-Pad1)*%
X120000000Y-63500000D02*
X120000000Y-59700000D01*
X120000000Y-59700000D02*
X119750000Y-59450000D01*
%TO.N,Net-(D021-Pad2)*%
X122540000Y-53500000D02*
X122540000Y-48760000D01*
X122540000Y-48760000D02*
X122750000Y-48550000D01*
%TO.N,Net-(D021-Pad1)*%
X120000000Y-53500000D02*
X120000000Y-49750000D01*
X120000000Y-49750000D02*
X119750000Y-49500000D01*
%TO.N,Net-(D011-Pad2)*%
X122500000Y-43500000D02*
X122500000Y-38750000D01*
X122500000Y-38750000D02*
X122750000Y-38500000D01*
%TO.N,Net-(D011-Pad1)*%
X119960000Y-43500000D02*
X119960000Y-39660000D01*
X119960000Y-39660000D02*
X119750000Y-39450000D01*
%TO.N,Net-(D001-Pad2)*%
X122515000Y-33500000D02*
X122515000Y-28735000D01*
X122515000Y-28735000D02*
X122750000Y-28500000D01*
%TO.N,Net-(D001-Pad1)*%
X119975000Y-33500000D02*
X119975000Y-29675000D01*
X119975000Y-29675000D02*
X119750000Y-29450000D01*
%TD*%
M02*
