M48
; DRILL file {KiCad 6.0.1-79c1e3a40b~116~ubuntu20.04.1} date Wed 06 Jul 2022 08:39:27 PM JST
; FORMAT={-:-/ absolute / inch / decimal}
; #@! TF.CreationDate,2022-07-06T20:39:27+09:00
; #@! TF.GenerationSoftware,Kicad,Pcbnew,6.0.1-79c1e3a40b~116~ubuntu20.04.1
; #@! TF.FileFunction,Plated,1,2,PTH
FMAT,2
INCH
; #@! TA.AperFunction,Plated,PTH,ComponentDrill
T1C0.0354
%
G90
G05
T1
X4.7228Y-1.7126
X4.7234Y-1.3189
X4.7234Y-2.8937
X4.7234Y-3.2874
X4.7234Y-3.6811
X4.7234Y-4.0748
X4.7234Y-4.4685
X4.7234Y-4.8622
X4.7234Y-5.2559
X4.7234Y-5.6496
X4.7234Y-6.0433
X4.7234Y-6.437
X4.7244Y-2.1063
X4.7244Y-2.5
X4.7244Y-6.8307
X4.7244Y-7.2244
X4.8228Y-1.7126
X4.8234Y-1.3189
X4.8234Y-2.8937
X4.8234Y-3.2874
X4.8234Y-3.6811
X4.8234Y-4.0748
X4.8234Y-4.4685
X4.8234Y-4.8622
X4.8234Y-5.2559
X4.8234Y-5.6496
X4.8234Y-6.0433
X4.8234Y-6.437
X4.8244Y-2.1063
X4.8244Y-2.5
X4.8244Y-6.8307
X4.8244Y-7.2244
T0
M30
