%TF.GenerationSoftware,KiCad,Pcbnew,6.0.1-79c1e3a40b~116~ubuntu20.04.1*%
%TF.CreationDate,2022-07-06T20:39:23+09:00*%
%TF.ProjectId,test-rectenna-2p4g-pcb,74657374-2d72-4656-9374-656e6e612d32,1.0*%
%TF.SameCoordinates,Original*%
%TF.FileFunction,Legend,Top*%
%TF.FilePolarity,Positive*%
%FSLAX46Y46*%
G04 Gerber Fmt 4.6, Leading zero omitted, Abs format (unit mm)*
G04 Created by KiCad (PCBNEW 6.0.1-79c1e3a40b~116~ubuntu20.04.1) date 2022-07-06 20:39:23*
%MOMM*%
%LPD*%
G01*
G04 APERTURE LIST*
%ADD10C,0.150000*%
%ADD11C,0.120000*%
G04 APERTURE END LIST*
D10*
X138859404Y-180890000D02*
X138764166Y-180842380D01*
X138621309Y-180842380D01*
X138478452Y-180890000D01*
X138383214Y-180985238D01*
X138335595Y-181080476D01*
X138287976Y-181270952D01*
X138287976Y-181413809D01*
X138335595Y-181604285D01*
X138383214Y-181699523D01*
X138478452Y-181794761D01*
X138621309Y-181842380D01*
X138716547Y-181842380D01*
X138859404Y-181794761D01*
X138907023Y-181747142D01*
X138907023Y-181413809D01*
X138716547Y-181413809D01*
X139335595Y-181842380D02*
X139335595Y-181175714D01*
X139335595Y-180842380D02*
X139287976Y-180890000D01*
X139335595Y-180937619D01*
X139383214Y-180890000D01*
X139335595Y-180842380D01*
X139335595Y-180937619D01*
X139668928Y-181175714D02*
X140049880Y-181175714D01*
X139811785Y-180842380D02*
X139811785Y-181699523D01*
X139859404Y-181794761D01*
X139954642Y-181842380D01*
X140049880Y-181842380D01*
X140383214Y-181842380D02*
X140383214Y-180842380D01*
X140811785Y-181842380D02*
X140811785Y-181318571D01*
X140764166Y-181223333D01*
X140668928Y-181175714D01*
X140526071Y-181175714D01*
X140430833Y-181223333D01*
X140383214Y-181270952D01*
X141716547Y-181175714D02*
X141716547Y-181842380D01*
X141287976Y-181175714D02*
X141287976Y-181699523D01*
X141335595Y-181794761D01*
X141430833Y-181842380D01*
X141573690Y-181842380D01*
X141668928Y-181794761D01*
X141716547Y-181747142D01*
X142192738Y-181842380D02*
X142192738Y-180842380D01*
X142192738Y-181223333D02*
X142287976Y-181175714D01*
X142478452Y-181175714D01*
X142573690Y-181223333D01*
X142621309Y-181270952D01*
X142668928Y-181366190D01*
X142668928Y-181651904D01*
X142621309Y-181747142D01*
X142573690Y-181794761D01*
X142478452Y-181842380D01*
X142287976Y-181842380D01*
X142192738Y-181794761D01*
X143097500Y-181747142D02*
X143145119Y-181794761D01*
X143097500Y-181842380D01*
X143049880Y-181794761D01*
X143097500Y-181747142D01*
X143097500Y-181842380D01*
X143097500Y-181223333D02*
X143145119Y-181270952D01*
X143097500Y-181318571D01*
X143049880Y-181270952D01*
X143097500Y-181223333D01*
X143097500Y-181318571D01*
X144954642Y-181366190D02*
X144907023Y-181318571D01*
X144811785Y-181270952D01*
X144716547Y-181270952D01*
X144621309Y-181318571D01*
X144573690Y-181366190D01*
X144526071Y-181461428D01*
X144526071Y-181556666D01*
X144573690Y-181651904D01*
X144621309Y-181699523D01*
X144716547Y-181747142D01*
X144811785Y-181747142D01*
X144907023Y-181699523D01*
X144954642Y-181651904D01*
X144954642Y-181270952D02*
X144954642Y-181651904D01*
X145002261Y-181699523D01*
X145049880Y-181699523D01*
X145145119Y-181651904D01*
X145192738Y-181556666D01*
X145192738Y-181318571D01*
X145097500Y-181175714D01*
X144954642Y-181080476D01*
X144764166Y-181032857D01*
X144573690Y-181080476D01*
X144430833Y-181175714D01*
X144335595Y-181318571D01*
X144287976Y-181509047D01*
X144335595Y-181699523D01*
X144430833Y-181842380D01*
X144573690Y-181937619D01*
X144764166Y-181985238D01*
X144954642Y-181937619D01*
X145097500Y-181842380D01*
X145478452Y-181175714D02*
X145859404Y-181175714D01*
X145621309Y-180842380D02*
X145621309Y-181699523D01*
X145668928Y-181794761D01*
X145764166Y-181842380D01*
X145859404Y-181842380D01*
X146621309Y-181842380D02*
X146621309Y-181318571D01*
X146573690Y-181223333D01*
X146478452Y-181175714D01*
X146287976Y-181175714D01*
X146192738Y-181223333D01*
X146621309Y-181794761D02*
X146526071Y-181842380D01*
X146287976Y-181842380D01*
X146192738Y-181794761D01*
X146145119Y-181699523D01*
X146145119Y-181604285D01*
X146192738Y-181509047D01*
X146287976Y-181461428D01*
X146526071Y-181461428D01*
X146621309Y-181413809D01*
X147097500Y-181842380D02*
X147097500Y-180842380D01*
X147192738Y-181461428D02*
X147478452Y-181842380D01*
X147478452Y-181175714D02*
X147097500Y-181556666D01*
X148335595Y-181175714D02*
X148335595Y-181842380D01*
X147907023Y-181175714D02*
X147907023Y-181699523D01*
X147954642Y-181794761D01*
X148049880Y-181842380D01*
X148192738Y-181842380D01*
X148287976Y-181794761D01*
X148335595Y-181747142D01*
X148811785Y-181842380D02*
X148811785Y-181175714D01*
X148811785Y-181366190D02*
X148859404Y-181270952D01*
X148907023Y-181223333D01*
X149002261Y-181175714D01*
X149097500Y-181175714D01*
X149335595Y-181842380D02*
X149859404Y-181175714D01*
X149335595Y-181175714D02*
X149859404Y-181842380D01*
X138287976Y-182547619D02*
X138335595Y-182500000D01*
X138430833Y-182452380D01*
X138668928Y-182452380D01*
X138764166Y-182500000D01*
X138811785Y-182547619D01*
X138859404Y-182642857D01*
X138859404Y-182738095D01*
X138811785Y-182880952D01*
X138240357Y-183452380D01*
X138859404Y-183452380D01*
X139240357Y-182547619D02*
X139287976Y-182500000D01*
X139383214Y-182452380D01*
X139621309Y-182452380D01*
X139716547Y-182500000D01*
X139764166Y-182547619D01*
X139811785Y-182642857D01*
X139811785Y-182738095D01*
X139764166Y-182880952D01*
X139192738Y-183452380D01*
X139811785Y-183452380D01*
X140430833Y-182452380D02*
X140526071Y-182452380D01*
X140621309Y-182500000D01*
X140668928Y-182547619D01*
X140716547Y-182642857D01*
X140764166Y-182833333D01*
X140764166Y-183071428D01*
X140716547Y-183261904D01*
X140668928Y-183357142D01*
X140621309Y-183404761D01*
X140526071Y-183452380D01*
X140430833Y-183452380D01*
X140335595Y-183404761D01*
X140287976Y-183357142D01*
X140240357Y-183261904D01*
X140192738Y-183071428D01*
X140192738Y-182833333D01*
X140240357Y-182642857D01*
X140287976Y-182547619D01*
X140335595Y-182500000D01*
X140430833Y-182452380D01*
X141097500Y-182452380D02*
X141764166Y-182452380D01*
X141335595Y-183452380D01*
X142335595Y-182452380D02*
X142430833Y-182452380D01*
X142526071Y-182500000D01*
X142573690Y-182547619D01*
X142621309Y-182642857D01*
X142668928Y-182833333D01*
X142668928Y-183071428D01*
X142621309Y-183261904D01*
X142573690Y-183357142D01*
X142526071Y-183404761D01*
X142430833Y-183452380D01*
X142335595Y-183452380D01*
X142240357Y-183404761D01*
X142192738Y-183357142D01*
X142145119Y-183261904D01*
X142097500Y-183071428D01*
X142097500Y-182833333D01*
X142145119Y-182642857D01*
X142192738Y-182547619D01*
X142240357Y-182500000D01*
X142335595Y-182452380D01*
X143526071Y-182452380D02*
X143335595Y-182452380D01*
X143240357Y-182500000D01*
X143192738Y-182547619D01*
X143097500Y-182690476D01*
X143049880Y-182880952D01*
X143049880Y-183261904D01*
X143097500Y-183357142D01*
X143145119Y-183404761D01*
X143240357Y-183452380D01*
X143430833Y-183452380D01*
X143526071Y-183404761D01*
X143573690Y-183357142D01*
X143621309Y-183261904D01*
X143621309Y-183023809D01*
X143573690Y-182928571D01*
X143526071Y-182880952D01*
X143430833Y-182833333D01*
X143240357Y-182833333D01*
X143145119Y-182880952D01*
X143097500Y-182928571D01*
X143049880Y-183023809D01*
X144668928Y-182452380D02*
X145002261Y-183452380D01*
X145335595Y-182452380D01*
X146192738Y-183452380D02*
X145621309Y-183452380D01*
X145907023Y-183452380D02*
X145907023Y-182452380D01*
X145811785Y-182595238D01*
X145716547Y-182690476D01*
X145621309Y-182738095D01*
X146621309Y-183357142D02*
X146668928Y-183404761D01*
X146621309Y-183452380D01*
X146573690Y-183404761D01*
X146621309Y-183357142D01*
X146621309Y-183452380D01*
X147287976Y-182452380D02*
X147383214Y-182452380D01*
X147478452Y-182500000D01*
X147526071Y-182547619D01*
X147573690Y-182642857D01*
X147621309Y-182833333D01*
X147621309Y-183071428D01*
X147573690Y-183261904D01*
X147526071Y-183357142D01*
X147478452Y-183404761D01*
X147383214Y-183452380D01*
X147287976Y-183452380D01*
X147192738Y-183404761D01*
X147145119Y-183357142D01*
X147097500Y-183261904D01*
X147049880Y-183071428D01*
X147049880Y-182833333D01*
X147097500Y-182642857D01*
X147145119Y-182547619D01*
X147192738Y-182500000D01*
X147287976Y-182452380D01*
X138192738Y-184395714D02*
X138573690Y-184395714D01*
X138335595Y-184062380D02*
X138335595Y-184919523D01*
X138383214Y-185014761D01*
X138478452Y-185062380D01*
X138573690Y-185062380D01*
X139287976Y-185014761D02*
X139192738Y-185062380D01*
X139002261Y-185062380D01*
X138907023Y-185014761D01*
X138859404Y-184919523D01*
X138859404Y-184538571D01*
X138907023Y-184443333D01*
X139002261Y-184395714D01*
X139192738Y-184395714D01*
X139287976Y-184443333D01*
X139335595Y-184538571D01*
X139335595Y-184633809D01*
X138859404Y-184729047D01*
X139716547Y-185014761D02*
X139811785Y-185062380D01*
X140002261Y-185062380D01*
X140097500Y-185014761D01*
X140145119Y-184919523D01*
X140145119Y-184871904D01*
X140097500Y-184776666D01*
X140002261Y-184729047D01*
X139859404Y-184729047D01*
X139764166Y-184681428D01*
X139716547Y-184586190D01*
X139716547Y-184538571D01*
X139764166Y-184443333D01*
X139859404Y-184395714D01*
X140002261Y-184395714D01*
X140097500Y-184443333D01*
X140430833Y-184395714D02*
X140811785Y-184395714D01*
X140573690Y-184062380D02*
X140573690Y-184919523D01*
X140621309Y-185014761D01*
X140716547Y-185062380D01*
X140811785Y-185062380D01*
X141907023Y-185062380D02*
X141907023Y-184395714D01*
X141907023Y-184586190D02*
X141954642Y-184490952D01*
X142002261Y-184443333D01*
X142097500Y-184395714D01*
X142192738Y-184395714D01*
X142907023Y-185014761D02*
X142811785Y-185062380D01*
X142621309Y-185062380D01*
X142526071Y-185014761D01*
X142478452Y-184919523D01*
X142478452Y-184538571D01*
X142526071Y-184443333D01*
X142621309Y-184395714D01*
X142811785Y-184395714D01*
X142907023Y-184443333D01*
X142954642Y-184538571D01*
X142954642Y-184633809D01*
X142478452Y-184729047D01*
X143811785Y-185014761D02*
X143716547Y-185062380D01*
X143526071Y-185062380D01*
X143430833Y-185014761D01*
X143383214Y-184967142D01*
X143335595Y-184871904D01*
X143335595Y-184586190D01*
X143383214Y-184490952D01*
X143430833Y-184443333D01*
X143526071Y-184395714D01*
X143716547Y-184395714D01*
X143811785Y-184443333D01*
X144097500Y-184395714D02*
X144478452Y-184395714D01*
X144240357Y-184062380D02*
X144240357Y-184919523D01*
X144287976Y-185014761D01*
X144383214Y-185062380D01*
X144478452Y-185062380D01*
X145192738Y-185014761D02*
X145097500Y-185062380D01*
X144907023Y-185062380D01*
X144811785Y-185014761D01*
X144764166Y-184919523D01*
X144764166Y-184538571D01*
X144811785Y-184443333D01*
X144907023Y-184395714D01*
X145097500Y-184395714D01*
X145192738Y-184443333D01*
X145240357Y-184538571D01*
X145240357Y-184633809D01*
X144764166Y-184729047D01*
X145668928Y-184395714D02*
X145668928Y-185062380D01*
X145668928Y-184490952D02*
X145716547Y-184443333D01*
X145811785Y-184395714D01*
X145954642Y-184395714D01*
X146049880Y-184443333D01*
X146097500Y-184538571D01*
X146097500Y-185062380D01*
X146573690Y-184395714D02*
X146573690Y-185062380D01*
X146573690Y-184490952D02*
X146621309Y-184443333D01*
X146716547Y-184395714D01*
X146859404Y-184395714D01*
X146954642Y-184443333D01*
X147002261Y-184538571D01*
X147002261Y-185062380D01*
X147907023Y-185062380D02*
X147907023Y-184538571D01*
X147859404Y-184443333D01*
X147764166Y-184395714D01*
X147573690Y-184395714D01*
X147478452Y-184443333D01*
X147907023Y-185014761D02*
X147811785Y-185062380D01*
X147573690Y-185062380D01*
X147478452Y-185014761D01*
X147430833Y-184919523D01*
X147430833Y-184824285D01*
X147478452Y-184729047D01*
X147573690Y-184681428D01*
X147811785Y-184681428D01*
X147907023Y-184633809D01*
X149097500Y-184157619D02*
X149145119Y-184110000D01*
X149240357Y-184062380D01*
X149478452Y-184062380D01*
X149573690Y-184110000D01*
X149621309Y-184157619D01*
X149668928Y-184252857D01*
X149668928Y-184348095D01*
X149621309Y-184490952D01*
X149049880Y-185062380D01*
X149668928Y-185062380D01*
X150097500Y-184967142D02*
X150145119Y-185014761D01*
X150097500Y-185062380D01*
X150049880Y-185014761D01*
X150097500Y-184967142D01*
X150097500Y-185062380D01*
X151002261Y-184395714D02*
X151002261Y-185062380D01*
X150764166Y-184014761D02*
X150526071Y-184729047D01*
X151145119Y-184729047D01*
X152049880Y-184110000D02*
X151954642Y-184062380D01*
X151811785Y-184062380D01*
X151668928Y-184110000D01*
X151573690Y-184205238D01*
X151526071Y-184300476D01*
X151478452Y-184490952D01*
X151478452Y-184633809D01*
X151526071Y-184824285D01*
X151573690Y-184919523D01*
X151668928Y-185014761D01*
X151811785Y-185062380D01*
X151907023Y-185062380D01*
X152049880Y-185014761D01*
X152097500Y-184967142D01*
X152097500Y-184633809D01*
X151907023Y-184633809D01*
X152526071Y-185062380D02*
X152526071Y-184062380D01*
X152526071Y-184538571D02*
X153097500Y-184538571D01*
X153097500Y-185062380D02*
X153097500Y-184062380D01*
X153478452Y-184395714D02*
X154002261Y-184395714D01*
X153478452Y-185062380D01*
X154002261Y-185062380D01*
X107907023Y-162357142D02*
X107859404Y-162404761D01*
X107716547Y-162452380D01*
X107621309Y-162452380D01*
X107478452Y-162404761D01*
X107383214Y-162309523D01*
X107335595Y-162214285D01*
X107287976Y-162023809D01*
X107287976Y-161880952D01*
X107335595Y-161690476D01*
X107383214Y-161595238D01*
X107478452Y-161500000D01*
X107621309Y-161452380D01*
X107716547Y-161452380D01*
X107859404Y-161500000D01*
X107907023Y-161547619D01*
X108335595Y-162452380D02*
X108335595Y-161452380D01*
X108764166Y-162452380D02*
X108764166Y-161928571D01*
X108716547Y-161833333D01*
X108621309Y-161785714D01*
X108478452Y-161785714D01*
X108383214Y-161833333D01*
X108335595Y-161880952D01*
X109668928Y-162452380D02*
X109668928Y-161928571D01*
X109621309Y-161833333D01*
X109526071Y-161785714D01*
X109335595Y-161785714D01*
X109240357Y-161833333D01*
X109668928Y-162404761D02*
X109573690Y-162452380D01*
X109335595Y-162452380D01*
X109240357Y-162404761D01*
X109192738Y-162309523D01*
X109192738Y-162214285D01*
X109240357Y-162119047D01*
X109335595Y-162071428D01*
X109573690Y-162071428D01*
X109668928Y-162023809D01*
X110145119Y-161785714D02*
X110145119Y-162452380D01*
X110145119Y-161880952D02*
X110192738Y-161833333D01*
X110287976Y-161785714D01*
X110430833Y-161785714D01*
X110526071Y-161833333D01*
X110573690Y-161928571D01*
X110573690Y-162452380D01*
X111049880Y-161785714D02*
X111049880Y-162452380D01*
X111049880Y-161880952D02*
X111097500Y-161833333D01*
X111192738Y-161785714D01*
X111335595Y-161785714D01*
X111430833Y-161833333D01*
X111478452Y-161928571D01*
X111478452Y-162452380D01*
X112335595Y-162404761D02*
X112240357Y-162452380D01*
X112049880Y-162452380D01*
X111954642Y-162404761D01*
X111907023Y-162309523D01*
X111907023Y-161928571D01*
X111954642Y-161833333D01*
X112049880Y-161785714D01*
X112240357Y-161785714D01*
X112335595Y-161833333D01*
X112383214Y-161928571D01*
X112383214Y-162023809D01*
X111907023Y-162119047D01*
X112954642Y-162452380D02*
X112859404Y-162404761D01*
X112811785Y-162309523D01*
X112811785Y-161452380D01*
X114621309Y-162452380D02*
X114049880Y-162452380D01*
X114335595Y-162452380D02*
X114335595Y-161452380D01*
X114240357Y-161595238D01*
X114145119Y-161690476D01*
X114049880Y-161738095D01*
X114954642Y-161452380D02*
X115573690Y-161452380D01*
X115240357Y-161833333D01*
X115383214Y-161833333D01*
X115478452Y-161880952D01*
X115526071Y-161928571D01*
X115573690Y-162023809D01*
X115573690Y-162261904D01*
X115526071Y-162357142D01*
X115478452Y-162404761D01*
X115383214Y-162452380D01*
X115097500Y-162452380D01*
X115002261Y-162404761D01*
X114954642Y-162357142D01*
X107907023Y-182357142D02*
X107859404Y-182404761D01*
X107716547Y-182452380D01*
X107621309Y-182452380D01*
X107478452Y-182404761D01*
X107383214Y-182309523D01*
X107335595Y-182214285D01*
X107287976Y-182023809D01*
X107287976Y-181880952D01*
X107335595Y-181690476D01*
X107383214Y-181595238D01*
X107478452Y-181500000D01*
X107621309Y-181452380D01*
X107716547Y-181452380D01*
X107859404Y-181500000D01*
X107907023Y-181547619D01*
X108335595Y-182452380D02*
X108335595Y-181452380D01*
X108764166Y-182452380D02*
X108764166Y-181928571D01*
X108716547Y-181833333D01*
X108621309Y-181785714D01*
X108478452Y-181785714D01*
X108383214Y-181833333D01*
X108335595Y-181880952D01*
X109668928Y-182452380D02*
X109668928Y-181928571D01*
X109621309Y-181833333D01*
X109526071Y-181785714D01*
X109335595Y-181785714D01*
X109240357Y-181833333D01*
X109668928Y-182404761D02*
X109573690Y-182452380D01*
X109335595Y-182452380D01*
X109240357Y-182404761D01*
X109192738Y-182309523D01*
X109192738Y-182214285D01*
X109240357Y-182119047D01*
X109335595Y-182071428D01*
X109573690Y-182071428D01*
X109668928Y-182023809D01*
X110145119Y-181785714D02*
X110145119Y-182452380D01*
X110145119Y-181880952D02*
X110192738Y-181833333D01*
X110287976Y-181785714D01*
X110430833Y-181785714D01*
X110526071Y-181833333D01*
X110573690Y-181928571D01*
X110573690Y-182452380D01*
X111049880Y-181785714D02*
X111049880Y-182452380D01*
X111049880Y-181880952D02*
X111097500Y-181833333D01*
X111192738Y-181785714D01*
X111335595Y-181785714D01*
X111430833Y-181833333D01*
X111478452Y-181928571D01*
X111478452Y-182452380D01*
X112335595Y-182404761D02*
X112240357Y-182452380D01*
X112049880Y-182452380D01*
X111954642Y-182404761D01*
X111907023Y-182309523D01*
X111907023Y-181928571D01*
X111954642Y-181833333D01*
X112049880Y-181785714D01*
X112240357Y-181785714D01*
X112335595Y-181833333D01*
X112383214Y-181928571D01*
X112383214Y-182023809D01*
X111907023Y-182119047D01*
X112954642Y-182452380D02*
X112859404Y-182404761D01*
X112811785Y-182309523D01*
X112811785Y-181452380D01*
X114621309Y-182452380D02*
X114049880Y-182452380D01*
X114335595Y-182452380D02*
X114335595Y-181452380D01*
X114240357Y-181595238D01*
X114145119Y-181690476D01*
X114049880Y-181738095D01*
X115478452Y-181785714D02*
X115478452Y-182452380D01*
X115240357Y-181404761D02*
X115002261Y-182119047D01*
X115621309Y-182119047D01*
X107526071Y-171452380D02*
X107716547Y-171452380D01*
X107811785Y-171500000D01*
X107907023Y-171595238D01*
X107954642Y-171785714D01*
X107954642Y-172119047D01*
X107907023Y-172309523D01*
X107811785Y-172404761D01*
X107716547Y-172452380D01*
X107526071Y-172452380D01*
X107430833Y-172404761D01*
X107335595Y-172309523D01*
X107287976Y-172119047D01*
X107287976Y-171785714D01*
X107335595Y-171595238D01*
X107430833Y-171500000D01*
X107526071Y-171452380D01*
X108287976Y-171785714D02*
X108526071Y-172452380D01*
X108764166Y-171785714D01*
X109526071Y-172404761D02*
X109430833Y-172452380D01*
X109240357Y-172452380D01*
X109145119Y-172404761D01*
X109097500Y-172309523D01*
X109097500Y-171928571D01*
X109145119Y-171833333D01*
X109240357Y-171785714D01*
X109430833Y-171785714D01*
X109526071Y-171833333D01*
X109573690Y-171928571D01*
X109573690Y-172023809D01*
X109097500Y-172119047D01*
X110002261Y-172452380D02*
X110002261Y-171785714D01*
X110002261Y-171976190D02*
X110049880Y-171880952D01*
X110097500Y-171833333D01*
X110192738Y-171785714D01*
X110287976Y-171785714D01*
X107907023Y-132357142D02*
X107859404Y-132404761D01*
X107716547Y-132452380D01*
X107621309Y-132452380D01*
X107478452Y-132404761D01*
X107383214Y-132309523D01*
X107335595Y-132214285D01*
X107287976Y-132023809D01*
X107287976Y-131880952D01*
X107335595Y-131690476D01*
X107383214Y-131595238D01*
X107478452Y-131500000D01*
X107621309Y-131452380D01*
X107716547Y-131452380D01*
X107859404Y-131500000D01*
X107907023Y-131547619D01*
X108335595Y-132452380D02*
X108335595Y-131452380D01*
X108764166Y-132452380D02*
X108764166Y-131928571D01*
X108716547Y-131833333D01*
X108621309Y-131785714D01*
X108478452Y-131785714D01*
X108383214Y-131833333D01*
X108335595Y-131880952D01*
X109668928Y-132452380D02*
X109668928Y-131928571D01*
X109621309Y-131833333D01*
X109526071Y-131785714D01*
X109335595Y-131785714D01*
X109240357Y-131833333D01*
X109668928Y-132404761D02*
X109573690Y-132452380D01*
X109335595Y-132452380D01*
X109240357Y-132404761D01*
X109192738Y-132309523D01*
X109192738Y-132214285D01*
X109240357Y-132119047D01*
X109335595Y-132071428D01*
X109573690Y-132071428D01*
X109668928Y-132023809D01*
X110145119Y-131785714D02*
X110145119Y-132452380D01*
X110145119Y-131880952D02*
X110192738Y-131833333D01*
X110287976Y-131785714D01*
X110430833Y-131785714D01*
X110526071Y-131833333D01*
X110573690Y-131928571D01*
X110573690Y-132452380D01*
X111049880Y-131785714D02*
X111049880Y-132452380D01*
X111049880Y-131880952D02*
X111097500Y-131833333D01*
X111192738Y-131785714D01*
X111335595Y-131785714D01*
X111430833Y-131833333D01*
X111478452Y-131928571D01*
X111478452Y-132452380D01*
X112335595Y-132404761D02*
X112240357Y-132452380D01*
X112049880Y-132452380D01*
X111954642Y-132404761D01*
X111907023Y-132309523D01*
X111907023Y-131928571D01*
X111954642Y-131833333D01*
X112049880Y-131785714D01*
X112240357Y-131785714D01*
X112335595Y-131833333D01*
X112383214Y-131928571D01*
X112383214Y-132023809D01*
X111907023Y-132119047D01*
X112954642Y-132452380D02*
X112859404Y-132404761D01*
X112811785Y-132309523D01*
X112811785Y-131452380D01*
X114621309Y-132452380D02*
X114049880Y-132452380D01*
X114335595Y-132452380D02*
X114335595Y-131452380D01*
X114240357Y-131595238D01*
X114145119Y-131690476D01*
X114049880Y-131738095D01*
X115240357Y-131452380D02*
X115335595Y-131452380D01*
X115430833Y-131500000D01*
X115478452Y-131547619D01*
X115526071Y-131642857D01*
X115573690Y-131833333D01*
X115573690Y-132071428D01*
X115526071Y-132261904D01*
X115478452Y-132357142D01*
X115430833Y-132404761D01*
X115335595Y-132452380D01*
X115240357Y-132452380D01*
X115145119Y-132404761D01*
X115097500Y-132357142D01*
X115049880Y-132261904D01*
X115002261Y-132071428D01*
X115002261Y-131833333D01*
X115049880Y-131642857D01*
X115097500Y-131547619D01*
X115145119Y-131500000D01*
X115240357Y-131452380D01*
X107907023Y-152357142D02*
X107859404Y-152404761D01*
X107716547Y-152452380D01*
X107621309Y-152452380D01*
X107478452Y-152404761D01*
X107383214Y-152309523D01*
X107335595Y-152214285D01*
X107287976Y-152023809D01*
X107287976Y-151880952D01*
X107335595Y-151690476D01*
X107383214Y-151595238D01*
X107478452Y-151500000D01*
X107621309Y-151452380D01*
X107716547Y-151452380D01*
X107859404Y-151500000D01*
X107907023Y-151547619D01*
X108335595Y-152452380D02*
X108335595Y-151452380D01*
X108764166Y-152452380D02*
X108764166Y-151928571D01*
X108716547Y-151833333D01*
X108621309Y-151785714D01*
X108478452Y-151785714D01*
X108383214Y-151833333D01*
X108335595Y-151880952D01*
X109668928Y-152452380D02*
X109668928Y-151928571D01*
X109621309Y-151833333D01*
X109526071Y-151785714D01*
X109335595Y-151785714D01*
X109240357Y-151833333D01*
X109668928Y-152404761D02*
X109573690Y-152452380D01*
X109335595Y-152452380D01*
X109240357Y-152404761D01*
X109192738Y-152309523D01*
X109192738Y-152214285D01*
X109240357Y-152119047D01*
X109335595Y-152071428D01*
X109573690Y-152071428D01*
X109668928Y-152023809D01*
X110145119Y-151785714D02*
X110145119Y-152452380D01*
X110145119Y-151880952D02*
X110192738Y-151833333D01*
X110287976Y-151785714D01*
X110430833Y-151785714D01*
X110526071Y-151833333D01*
X110573690Y-151928571D01*
X110573690Y-152452380D01*
X111049880Y-151785714D02*
X111049880Y-152452380D01*
X111049880Y-151880952D02*
X111097500Y-151833333D01*
X111192738Y-151785714D01*
X111335595Y-151785714D01*
X111430833Y-151833333D01*
X111478452Y-151928571D01*
X111478452Y-152452380D01*
X112335595Y-152404761D02*
X112240357Y-152452380D01*
X112049880Y-152452380D01*
X111954642Y-152404761D01*
X111907023Y-152309523D01*
X111907023Y-151928571D01*
X111954642Y-151833333D01*
X112049880Y-151785714D01*
X112240357Y-151785714D01*
X112335595Y-151833333D01*
X112383214Y-151928571D01*
X112383214Y-152023809D01*
X111907023Y-152119047D01*
X112954642Y-152452380D02*
X112859404Y-152404761D01*
X112811785Y-152309523D01*
X112811785Y-151452380D01*
X114621309Y-152452380D02*
X114049880Y-152452380D01*
X114335595Y-152452380D02*
X114335595Y-151452380D01*
X114240357Y-151595238D01*
X114145119Y-151690476D01*
X114049880Y-151738095D01*
X115002261Y-151547619D02*
X115049880Y-151500000D01*
X115145119Y-151452380D01*
X115383214Y-151452380D01*
X115478452Y-151500000D01*
X115526071Y-151547619D01*
X115573690Y-151642857D01*
X115573690Y-151738095D01*
X115526071Y-151880952D01*
X114954642Y-152452380D01*
X115573690Y-152452380D01*
X107907023Y-142357142D02*
X107859404Y-142404761D01*
X107716547Y-142452380D01*
X107621309Y-142452380D01*
X107478452Y-142404761D01*
X107383214Y-142309523D01*
X107335595Y-142214285D01*
X107287976Y-142023809D01*
X107287976Y-141880952D01*
X107335595Y-141690476D01*
X107383214Y-141595238D01*
X107478452Y-141500000D01*
X107621309Y-141452380D01*
X107716547Y-141452380D01*
X107859404Y-141500000D01*
X107907023Y-141547619D01*
X108335595Y-142452380D02*
X108335595Y-141452380D01*
X108764166Y-142452380D02*
X108764166Y-141928571D01*
X108716547Y-141833333D01*
X108621309Y-141785714D01*
X108478452Y-141785714D01*
X108383214Y-141833333D01*
X108335595Y-141880952D01*
X109668928Y-142452380D02*
X109668928Y-141928571D01*
X109621309Y-141833333D01*
X109526071Y-141785714D01*
X109335595Y-141785714D01*
X109240357Y-141833333D01*
X109668928Y-142404761D02*
X109573690Y-142452380D01*
X109335595Y-142452380D01*
X109240357Y-142404761D01*
X109192738Y-142309523D01*
X109192738Y-142214285D01*
X109240357Y-142119047D01*
X109335595Y-142071428D01*
X109573690Y-142071428D01*
X109668928Y-142023809D01*
X110145119Y-141785714D02*
X110145119Y-142452380D01*
X110145119Y-141880952D02*
X110192738Y-141833333D01*
X110287976Y-141785714D01*
X110430833Y-141785714D01*
X110526071Y-141833333D01*
X110573690Y-141928571D01*
X110573690Y-142452380D01*
X111049880Y-141785714D02*
X111049880Y-142452380D01*
X111049880Y-141880952D02*
X111097500Y-141833333D01*
X111192738Y-141785714D01*
X111335595Y-141785714D01*
X111430833Y-141833333D01*
X111478452Y-141928571D01*
X111478452Y-142452380D01*
X112335595Y-142404761D02*
X112240357Y-142452380D01*
X112049880Y-142452380D01*
X111954642Y-142404761D01*
X111907023Y-142309523D01*
X111907023Y-141928571D01*
X111954642Y-141833333D01*
X112049880Y-141785714D01*
X112240357Y-141785714D01*
X112335595Y-141833333D01*
X112383214Y-141928571D01*
X112383214Y-142023809D01*
X111907023Y-142119047D01*
X112954642Y-142452380D02*
X112859404Y-142404761D01*
X112811785Y-142309523D01*
X112811785Y-141452380D01*
X114621309Y-142452380D02*
X114049880Y-142452380D01*
X114335595Y-142452380D02*
X114335595Y-141452380D01*
X114240357Y-141595238D01*
X114145119Y-141690476D01*
X114049880Y-141738095D01*
X115573690Y-142452380D02*
X115002261Y-142452380D01*
X115287976Y-142452380D02*
X115287976Y-141452380D01*
X115192738Y-141595238D01*
X115097500Y-141690476D01*
X115002261Y-141738095D01*
X107907023Y-102357142D02*
X107859404Y-102404761D01*
X107716547Y-102452380D01*
X107621309Y-102452380D01*
X107478452Y-102404761D01*
X107383214Y-102309523D01*
X107335595Y-102214285D01*
X107287976Y-102023809D01*
X107287976Y-101880952D01*
X107335595Y-101690476D01*
X107383214Y-101595238D01*
X107478452Y-101500000D01*
X107621309Y-101452380D01*
X107716547Y-101452380D01*
X107859404Y-101500000D01*
X107907023Y-101547619D01*
X108335595Y-102452380D02*
X108335595Y-101452380D01*
X108764166Y-102452380D02*
X108764166Y-101928571D01*
X108716547Y-101833333D01*
X108621309Y-101785714D01*
X108478452Y-101785714D01*
X108383214Y-101833333D01*
X108335595Y-101880952D01*
X109668928Y-102452380D02*
X109668928Y-101928571D01*
X109621309Y-101833333D01*
X109526071Y-101785714D01*
X109335595Y-101785714D01*
X109240357Y-101833333D01*
X109668928Y-102404761D02*
X109573690Y-102452380D01*
X109335595Y-102452380D01*
X109240357Y-102404761D01*
X109192738Y-102309523D01*
X109192738Y-102214285D01*
X109240357Y-102119047D01*
X109335595Y-102071428D01*
X109573690Y-102071428D01*
X109668928Y-102023809D01*
X110145119Y-101785714D02*
X110145119Y-102452380D01*
X110145119Y-101880952D02*
X110192738Y-101833333D01*
X110287976Y-101785714D01*
X110430833Y-101785714D01*
X110526071Y-101833333D01*
X110573690Y-101928571D01*
X110573690Y-102452380D01*
X111049880Y-101785714D02*
X111049880Y-102452380D01*
X111049880Y-101880952D02*
X111097500Y-101833333D01*
X111192738Y-101785714D01*
X111335595Y-101785714D01*
X111430833Y-101833333D01*
X111478452Y-101928571D01*
X111478452Y-102452380D01*
X112335595Y-102404761D02*
X112240357Y-102452380D01*
X112049880Y-102452380D01*
X111954642Y-102404761D01*
X111907023Y-102309523D01*
X111907023Y-101928571D01*
X111954642Y-101833333D01*
X112049880Y-101785714D01*
X112240357Y-101785714D01*
X112335595Y-101833333D01*
X112383214Y-101928571D01*
X112383214Y-102023809D01*
X111907023Y-102119047D01*
X112954642Y-102452380D02*
X112859404Y-102404761D01*
X112811785Y-102309523D01*
X112811785Y-101452380D01*
X114287976Y-101452380D02*
X114383214Y-101452380D01*
X114478452Y-101500000D01*
X114526071Y-101547619D01*
X114573690Y-101642857D01*
X114621309Y-101833333D01*
X114621309Y-102071428D01*
X114573690Y-102261904D01*
X114526071Y-102357142D01*
X114478452Y-102404761D01*
X114383214Y-102452380D01*
X114287976Y-102452380D01*
X114192738Y-102404761D01*
X114145119Y-102357142D01*
X114097500Y-102261904D01*
X114049880Y-102071428D01*
X114049880Y-101833333D01*
X114097500Y-101642857D01*
X114145119Y-101547619D01*
X114192738Y-101500000D01*
X114287976Y-101452380D01*
X114954642Y-101452380D02*
X115621309Y-101452380D01*
X115192738Y-102452380D01*
X107907023Y-122357142D02*
X107859404Y-122404761D01*
X107716547Y-122452380D01*
X107621309Y-122452380D01*
X107478452Y-122404761D01*
X107383214Y-122309523D01*
X107335595Y-122214285D01*
X107287976Y-122023809D01*
X107287976Y-121880952D01*
X107335595Y-121690476D01*
X107383214Y-121595238D01*
X107478452Y-121500000D01*
X107621309Y-121452380D01*
X107716547Y-121452380D01*
X107859404Y-121500000D01*
X107907023Y-121547619D01*
X108335595Y-122452380D02*
X108335595Y-121452380D01*
X108764166Y-122452380D02*
X108764166Y-121928571D01*
X108716547Y-121833333D01*
X108621309Y-121785714D01*
X108478452Y-121785714D01*
X108383214Y-121833333D01*
X108335595Y-121880952D01*
X109668928Y-122452380D02*
X109668928Y-121928571D01*
X109621309Y-121833333D01*
X109526071Y-121785714D01*
X109335595Y-121785714D01*
X109240357Y-121833333D01*
X109668928Y-122404761D02*
X109573690Y-122452380D01*
X109335595Y-122452380D01*
X109240357Y-122404761D01*
X109192738Y-122309523D01*
X109192738Y-122214285D01*
X109240357Y-122119047D01*
X109335595Y-122071428D01*
X109573690Y-122071428D01*
X109668928Y-122023809D01*
X110145119Y-121785714D02*
X110145119Y-122452380D01*
X110145119Y-121880952D02*
X110192738Y-121833333D01*
X110287976Y-121785714D01*
X110430833Y-121785714D01*
X110526071Y-121833333D01*
X110573690Y-121928571D01*
X110573690Y-122452380D01*
X111049880Y-121785714D02*
X111049880Y-122452380D01*
X111049880Y-121880952D02*
X111097500Y-121833333D01*
X111192738Y-121785714D01*
X111335595Y-121785714D01*
X111430833Y-121833333D01*
X111478452Y-121928571D01*
X111478452Y-122452380D01*
X112335595Y-122404761D02*
X112240357Y-122452380D01*
X112049880Y-122452380D01*
X111954642Y-122404761D01*
X111907023Y-122309523D01*
X111907023Y-121928571D01*
X111954642Y-121833333D01*
X112049880Y-121785714D01*
X112240357Y-121785714D01*
X112335595Y-121833333D01*
X112383214Y-121928571D01*
X112383214Y-122023809D01*
X111907023Y-122119047D01*
X112954642Y-122452380D02*
X112859404Y-122404761D01*
X112811785Y-122309523D01*
X112811785Y-121452380D01*
X114287976Y-121452380D02*
X114383214Y-121452380D01*
X114478452Y-121500000D01*
X114526071Y-121547619D01*
X114573690Y-121642857D01*
X114621309Y-121833333D01*
X114621309Y-122071428D01*
X114573690Y-122261904D01*
X114526071Y-122357142D01*
X114478452Y-122404761D01*
X114383214Y-122452380D01*
X114287976Y-122452380D01*
X114192738Y-122404761D01*
X114145119Y-122357142D01*
X114097500Y-122261904D01*
X114049880Y-122071428D01*
X114049880Y-121833333D01*
X114097500Y-121642857D01*
X114145119Y-121547619D01*
X114192738Y-121500000D01*
X114287976Y-121452380D01*
X115097500Y-122452380D02*
X115287976Y-122452380D01*
X115383214Y-122404761D01*
X115430833Y-122357142D01*
X115526071Y-122214285D01*
X115573690Y-122023809D01*
X115573690Y-121642857D01*
X115526071Y-121547619D01*
X115478452Y-121500000D01*
X115383214Y-121452380D01*
X115192738Y-121452380D01*
X115097500Y-121500000D01*
X115049880Y-121547619D01*
X115002261Y-121642857D01*
X115002261Y-121880952D01*
X115049880Y-121976190D01*
X115097500Y-122023809D01*
X115192738Y-122071428D01*
X115383214Y-122071428D01*
X115478452Y-122023809D01*
X115526071Y-121976190D01*
X115573690Y-121880952D01*
X107907023Y-112357142D02*
X107859404Y-112404761D01*
X107716547Y-112452380D01*
X107621309Y-112452380D01*
X107478452Y-112404761D01*
X107383214Y-112309523D01*
X107335595Y-112214285D01*
X107287976Y-112023809D01*
X107287976Y-111880952D01*
X107335595Y-111690476D01*
X107383214Y-111595238D01*
X107478452Y-111500000D01*
X107621309Y-111452380D01*
X107716547Y-111452380D01*
X107859404Y-111500000D01*
X107907023Y-111547619D01*
X108335595Y-112452380D02*
X108335595Y-111452380D01*
X108764166Y-112452380D02*
X108764166Y-111928571D01*
X108716547Y-111833333D01*
X108621309Y-111785714D01*
X108478452Y-111785714D01*
X108383214Y-111833333D01*
X108335595Y-111880952D01*
X109668928Y-112452380D02*
X109668928Y-111928571D01*
X109621309Y-111833333D01*
X109526071Y-111785714D01*
X109335595Y-111785714D01*
X109240357Y-111833333D01*
X109668928Y-112404761D02*
X109573690Y-112452380D01*
X109335595Y-112452380D01*
X109240357Y-112404761D01*
X109192738Y-112309523D01*
X109192738Y-112214285D01*
X109240357Y-112119047D01*
X109335595Y-112071428D01*
X109573690Y-112071428D01*
X109668928Y-112023809D01*
X110145119Y-111785714D02*
X110145119Y-112452380D01*
X110145119Y-111880952D02*
X110192738Y-111833333D01*
X110287976Y-111785714D01*
X110430833Y-111785714D01*
X110526071Y-111833333D01*
X110573690Y-111928571D01*
X110573690Y-112452380D01*
X111049880Y-111785714D02*
X111049880Y-112452380D01*
X111049880Y-111880952D02*
X111097500Y-111833333D01*
X111192738Y-111785714D01*
X111335595Y-111785714D01*
X111430833Y-111833333D01*
X111478452Y-111928571D01*
X111478452Y-112452380D01*
X112335595Y-112404761D02*
X112240357Y-112452380D01*
X112049880Y-112452380D01*
X111954642Y-112404761D01*
X111907023Y-112309523D01*
X111907023Y-111928571D01*
X111954642Y-111833333D01*
X112049880Y-111785714D01*
X112240357Y-111785714D01*
X112335595Y-111833333D01*
X112383214Y-111928571D01*
X112383214Y-112023809D01*
X111907023Y-112119047D01*
X112954642Y-112452380D02*
X112859404Y-112404761D01*
X112811785Y-112309523D01*
X112811785Y-111452380D01*
X114287976Y-111452380D02*
X114383214Y-111452380D01*
X114478452Y-111500000D01*
X114526071Y-111547619D01*
X114573690Y-111642857D01*
X114621309Y-111833333D01*
X114621309Y-112071428D01*
X114573690Y-112261904D01*
X114526071Y-112357142D01*
X114478452Y-112404761D01*
X114383214Y-112452380D01*
X114287976Y-112452380D01*
X114192738Y-112404761D01*
X114145119Y-112357142D01*
X114097500Y-112261904D01*
X114049880Y-112071428D01*
X114049880Y-111833333D01*
X114097500Y-111642857D01*
X114145119Y-111547619D01*
X114192738Y-111500000D01*
X114287976Y-111452380D01*
X115192738Y-111880952D02*
X115097500Y-111833333D01*
X115049880Y-111785714D01*
X115002261Y-111690476D01*
X115002261Y-111642857D01*
X115049880Y-111547619D01*
X115097500Y-111500000D01*
X115192738Y-111452380D01*
X115383214Y-111452380D01*
X115478452Y-111500000D01*
X115526071Y-111547619D01*
X115573690Y-111642857D01*
X115573690Y-111690476D01*
X115526071Y-111785714D01*
X115478452Y-111833333D01*
X115383214Y-111880952D01*
X115192738Y-111880952D01*
X115097500Y-111928571D01*
X115049880Y-111976190D01*
X115002261Y-112071428D01*
X115002261Y-112261904D01*
X115049880Y-112357142D01*
X115097500Y-112404761D01*
X115192738Y-112452380D01*
X115383214Y-112452380D01*
X115478452Y-112404761D01*
X115526071Y-112357142D01*
X115573690Y-112261904D01*
X115573690Y-112071428D01*
X115526071Y-111976190D01*
X115478452Y-111928571D01*
X115383214Y-111880952D01*
X107907023Y-72357142D02*
X107859404Y-72404761D01*
X107716547Y-72452380D01*
X107621309Y-72452380D01*
X107478452Y-72404761D01*
X107383214Y-72309523D01*
X107335595Y-72214285D01*
X107287976Y-72023809D01*
X107287976Y-71880952D01*
X107335595Y-71690476D01*
X107383214Y-71595238D01*
X107478452Y-71500000D01*
X107621309Y-71452380D01*
X107716547Y-71452380D01*
X107859404Y-71500000D01*
X107907023Y-71547619D01*
X108335595Y-72452380D02*
X108335595Y-71452380D01*
X108764166Y-72452380D02*
X108764166Y-71928571D01*
X108716547Y-71833333D01*
X108621309Y-71785714D01*
X108478452Y-71785714D01*
X108383214Y-71833333D01*
X108335595Y-71880952D01*
X109668928Y-72452380D02*
X109668928Y-71928571D01*
X109621309Y-71833333D01*
X109526071Y-71785714D01*
X109335595Y-71785714D01*
X109240357Y-71833333D01*
X109668928Y-72404761D02*
X109573690Y-72452380D01*
X109335595Y-72452380D01*
X109240357Y-72404761D01*
X109192738Y-72309523D01*
X109192738Y-72214285D01*
X109240357Y-72119047D01*
X109335595Y-72071428D01*
X109573690Y-72071428D01*
X109668928Y-72023809D01*
X110145119Y-71785714D02*
X110145119Y-72452380D01*
X110145119Y-71880952D02*
X110192738Y-71833333D01*
X110287976Y-71785714D01*
X110430833Y-71785714D01*
X110526071Y-71833333D01*
X110573690Y-71928571D01*
X110573690Y-72452380D01*
X111049880Y-71785714D02*
X111049880Y-72452380D01*
X111049880Y-71880952D02*
X111097500Y-71833333D01*
X111192738Y-71785714D01*
X111335595Y-71785714D01*
X111430833Y-71833333D01*
X111478452Y-71928571D01*
X111478452Y-72452380D01*
X112335595Y-72404761D02*
X112240357Y-72452380D01*
X112049880Y-72452380D01*
X111954642Y-72404761D01*
X111907023Y-72309523D01*
X111907023Y-71928571D01*
X111954642Y-71833333D01*
X112049880Y-71785714D01*
X112240357Y-71785714D01*
X112335595Y-71833333D01*
X112383214Y-71928571D01*
X112383214Y-72023809D01*
X111907023Y-72119047D01*
X112954642Y-72452380D02*
X112859404Y-72404761D01*
X112811785Y-72309523D01*
X112811785Y-71452380D01*
X114287976Y-71452380D02*
X114383214Y-71452380D01*
X114478452Y-71500000D01*
X114526071Y-71547619D01*
X114573690Y-71642857D01*
X114621309Y-71833333D01*
X114621309Y-72071428D01*
X114573690Y-72261904D01*
X114526071Y-72357142D01*
X114478452Y-72404761D01*
X114383214Y-72452380D01*
X114287976Y-72452380D01*
X114192738Y-72404761D01*
X114145119Y-72357142D01*
X114097500Y-72261904D01*
X114049880Y-72071428D01*
X114049880Y-71833333D01*
X114097500Y-71642857D01*
X114145119Y-71547619D01*
X114192738Y-71500000D01*
X114287976Y-71452380D01*
X115478452Y-71785714D02*
X115478452Y-72452380D01*
X115240357Y-71404761D02*
X115002261Y-72119047D01*
X115621309Y-72119047D01*
X107907023Y-92357142D02*
X107859404Y-92404761D01*
X107716547Y-92452380D01*
X107621309Y-92452380D01*
X107478452Y-92404761D01*
X107383214Y-92309523D01*
X107335595Y-92214285D01*
X107287976Y-92023809D01*
X107287976Y-91880952D01*
X107335595Y-91690476D01*
X107383214Y-91595238D01*
X107478452Y-91500000D01*
X107621309Y-91452380D01*
X107716547Y-91452380D01*
X107859404Y-91500000D01*
X107907023Y-91547619D01*
X108335595Y-92452380D02*
X108335595Y-91452380D01*
X108764166Y-92452380D02*
X108764166Y-91928571D01*
X108716547Y-91833333D01*
X108621309Y-91785714D01*
X108478452Y-91785714D01*
X108383214Y-91833333D01*
X108335595Y-91880952D01*
X109668928Y-92452380D02*
X109668928Y-91928571D01*
X109621309Y-91833333D01*
X109526071Y-91785714D01*
X109335595Y-91785714D01*
X109240357Y-91833333D01*
X109668928Y-92404761D02*
X109573690Y-92452380D01*
X109335595Y-92452380D01*
X109240357Y-92404761D01*
X109192738Y-92309523D01*
X109192738Y-92214285D01*
X109240357Y-92119047D01*
X109335595Y-92071428D01*
X109573690Y-92071428D01*
X109668928Y-92023809D01*
X110145119Y-91785714D02*
X110145119Y-92452380D01*
X110145119Y-91880952D02*
X110192738Y-91833333D01*
X110287976Y-91785714D01*
X110430833Y-91785714D01*
X110526071Y-91833333D01*
X110573690Y-91928571D01*
X110573690Y-92452380D01*
X111049880Y-91785714D02*
X111049880Y-92452380D01*
X111049880Y-91880952D02*
X111097500Y-91833333D01*
X111192738Y-91785714D01*
X111335595Y-91785714D01*
X111430833Y-91833333D01*
X111478452Y-91928571D01*
X111478452Y-92452380D01*
X112335595Y-92404761D02*
X112240357Y-92452380D01*
X112049880Y-92452380D01*
X111954642Y-92404761D01*
X111907023Y-92309523D01*
X111907023Y-91928571D01*
X111954642Y-91833333D01*
X112049880Y-91785714D01*
X112240357Y-91785714D01*
X112335595Y-91833333D01*
X112383214Y-91928571D01*
X112383214Y-92023809D01*
X111907023Y-92119047D01*
X112954642Y-92452380D02*
X112859404Y-92404761D01*
X112811785Y-92309523D01*
X112811785Y-91452380D01*
X114287976Y-91452380D02*
X114383214Y-91452380D01*
X114478452Y-91500000D01*
X114526071Y-91547619D01*
X114573690Y-91642857D01*
X114621309Y-91833333D01*
X114621309Y-92071428D01*
X114573690Y-92261904D01*
X114526071Y-92357142D01*
X114478452Y-92404761D01*
X114383214Y-92452380D01*
X114287976Y-92452380D01*
X114192738Y-92404761D01*
X114145119Y-92357142D01*
X114097500Y-92261904D01*
X114049880Y-92071428D01*
X114049880Y-91833333D01*
X114097500Y-91642857D01*
X114145119Y-91547619D01*
X114192738Y-91500000D01*
X114287976Y-91452380D01*
X115478452Y-91452380D02*
X115287976Y-91452380D01*
X115192738Y-91500000D01*
X115145119Y-91547619D01*
X115049880Y-91690476D01*
X115002261Y-91880952D01*
X115002261Y-92261904D01*
X115049880Y-92357142D01*
X115097500Y-92404761D01*
X115192738Y-92452380D01*
X115383214Y-92452380D01*
X115478452Y-92404761D01*
X115526071Y-92357142D01*
X115573690Y-92261904D01*
X115573690Y-92023809D01*
X115526071Y-91928571D01*
X115478452Y-91880952D01*
X115383214Y-91833333D01*
X115192738Y-91833333D01*
X115097500Y-91880952D01*
X115049880Y-91928571D01*
X115002261Y-92023809D01*
X107907023Y-82357142D02*
X107859404Y-82404761D01*
X107716547Y-82452380D01*
X107621309Y-82452380D01*
X107478452Y-82404761D01*
X107383214Y-82309523D01*
X107335595Y-82214285D01*
X107287976Y-82023809D01*
X107287976Y-81880952D01*
X107335595Y-81690476D01*
X107383214Y-81595238D01*
X107478452Y-81500000D01*
X107621309Y-81452380D01*
X107716547Y-81452380D01*
X107859404Y-81500000D01*
X107907023Y-81547619D01*
X108335595Y-82452380D02*
X108335595Y-81452380D01*
X108764166Y-82452380D02*
X108764166Y-81928571D01*
X108716547Y-81833333D01*
X108621309Y-81785714D01*
X108478452Y-81785714D01*
X108383214Y-81833333D01*
X108335595Y-81880952D01*
X109668928Y-82452380D02*
X109668928Y-81928571D01*
X109621309Y-81833333D01*
X109526071Y-81785714D01*
X109335595Y-81785714D01*
X109240357Y-81833333D01*
X109668928Y-82404761D02*
X109573690Y-82452380D01*
X109335595Y-82452380D01*
X109240357Y-82404761D01*
X109192738Y-82309523D01*
X109192738Y-82214285D01*
X109240357Y-82119047D01*
X109335595Y-82071428D01*
X109573690Y-82071428D01*
X109668928Y-82023809D01*
X110145119Y-81785714D02*
X110145119Y-82452380D01*
X110145119Y-81880952D02*
X110192738Y-81833333D01*
X110287976Y-81785714D01*
X110430833Y-81785714D01*
X110526071Y-81833333D01*
X110573690Y-81928571D01*
X110573690Y-82452380D01*
X111049880Y-81785714D02*
X111049880Y-82452380D01*
X111049880Y-81880952D02*
X111097500Y-81833333D01*
X111192738Y-81785714D01*
X111335595Y-81785714D01*
X111430833Y-81833333D01*
X111478452Y-81928571D01*
X111478452Y-82452380D01*
X112335595Y-82404761D02*
X112240357Y-82452380D01*
X112049880Y-82452380D01*
X111954642Y-82404761D01*
X111907023Y-82309523D01*
X111907023Y-81928571D01*
X111954642Y-81833333D01*
X112049880Y-81785714D01*
X112240357Y-81785714D01*
X112335595Y-81833333D01*
X112383214Y-81928571D01*
X112383214Y-82023809D01*
X111907023Y-82119047D01*
X112954642Y-82452380D02*
X112859404Y-82404761D01*
X112811785Y-82309523D01*
X112811785Y-81452380D01*
X114287976Y-81452380D02*
X114383214Y-81452380D01*
X114478452Y-81500000D01*
X114526071Y-81547619D01*
X114573690Y-81642857D01*
X114621309Y-81833333D01*
X114621309Y-82071428D01*
X114573690Y-82261904D01*
X114526071Y-82357142D01*
X114478452Y-82404761D01*
X114383214Y-82452380D01*
X114287976Y-82452380D01*
X114192738Y-82404761D01*
X114145119Y-82357142D01*
X114097500Y-82261904D01*
X114049880Y-82071428D01*
X114049880Y-81833333D01*
X114097500Y-81642857D01*
X114145119Y-81547619D01*
X114192738Y-81500000D01*
X114287976Y-81452380D01*
X115526071Y-81452380D02*
X115049880Y-81452380D01*
X115002261Y-81928571D01*
X115049880Y-81880952D01*
X115145119Y-81833333D01*
X115383214Y-81833333D01*
X115478452Y-81880952D01*
X115526071Y-81928571D01*
X115573690Y-82023809D01*
X115573690Y-82261904D01*
X115526071Y-82357142D01*
X115478452Y-82404761D01*
X115383214Y-82452380D01*
X115145119Y-82452380D01*
X115049880Y-82404761D01*
X115002261Y-82357142D01*
X107907023Y-62357142D02*
X107859404Y-62404761D01*
X107716547Y-62452380D01*
X107621309Y-62452380D01*
X107478452Y-62404761D01*
X107383214Y-62309523D01*
X107335595Y-62214285D01*
X107287976Y-62023809D01*
X107287976Y-61880952D01*
X107335595Y-61690476D01*
X107383214Y-61595238D01*
X107478452Y-61500000D01*
X107621309Y-61452380D01*
X107716547Y-61452380D01*
X107859404Y-61500000D01*
X107907023Y-61547619D01*
X108335595Y-62452380D02*
X108335595Y-61452380D01*
X108764166Y-62452380D02*
X108764166Y-61928571D01*
X108716547Y-61833333D01*
X108621309Y-61785714D01*
X108478452Y-61785714D01*
X108383214Y-61833333D01*
X108335595Y-61880952D01*
X109668928Y-62452380D02*
X109668928Y-61928571D01*
X109621309Y-61833333D01*
X109526071Y-61785714D01*
X109335595Y-61785714D01*
X109240357Y-61833333D01*
X109668928Y-62404761D02*
X109573690Y-62452380D01*
X109335595Y-62452380D01*
X109240357Y-62404761D01*
X109192738Y-62309523D01*
X109192738Y-62214285D01*
X109240357Y-62119047D01*
X109335595Y-62071428D01*
X109573690Y-62071428D01*
X109668928Y-62023809D01*
X110145119Y-61785714D02*
X110145119Y-62452380D01*
X110145119Y-61880952D02*
X110192738Y-61833333D01*
X110287976Y-61785714D01*
X110430833Y-61785714D01*
X110526071Y-61833333D01*
X110573690Y-61928571D01*
X110573690Y-62452380D01*
X111049880Y-61785714D02*
X111049880Y-62452380D01*
X111049880Y-61880952D02*
X111097500Y-61833333D01*
X111192738Y-61785714D01*
X111335595Y-61785714D01*
X111430833Y-61833333D01*
X111478452Y-61928571D01*
X111478452Y-62452380D01*
X112335595Y-62404761D02*
X112240357Y-62452380D01*
X112049880Y-62452380D01*
X111954642Y-62404761D01*
X111907023Y-62309523D01*
X111907023Y-61928571D01*
X111954642Y-61833333D01*
X112049880Y-61785714D01*
X112240357Y-61785714D01*
X112335595Y-61833333D01*
X112383214Y-61928571D01*
X112383214Y-62023809D01*
X111907023Y-62119047D01*
X112954642Y-62452380D02*
X112859404Y-62404761D01*
X112811785Y-62309523D01*
X112811785Y-61452380D01*
X114287976Y-61452380D02*
X114383214Y-61452380D01*
X114478452Y-61500000D01*
X114526071Y-61547619D01*
X114573690Y-61642857D01*
X114621309Y-61833333D01*
X114621309Y-62071428D01*
X114573690Y-62261904D01*
X114526071Y-62357142D01*
X114478452Y-62404761D01*
X114383214Y-62452380D01*
X114287976Y-62452380D01*
X114192738Y-62404761D01*
X114145119Y-62357142D01*
X114097500Y-62261904D01*
X114049880Y-62071428D01*
X114049880Y-61833333D01*
X114097500Y-61642857D01*
X114145119Y-61547619D01*
X114192738Y-61500000D01*
X114287976Y-61452380D01*
X114954642Y-61452380D02*
X115573690Y-61452380D01*
X115240357Y-61833333D01*
X115383214Y-61833333D01*
X115478452Y-61880952D01*
X115526071Y-61928571D01*
X115573690Y-62023809D01*
X115573690Y-62261904D01*
X115526071Y-62357142D01*
X115478452Y-62404761D01*
X115383214Y-62452380D01*
X115097500Y-62452380D01*
X115002261Y-62404761D01*
X114954642Y-62357142D01*
X107907023Y-52357142D02*
X107859404Y-52404761D01*
X107716547Y-52452380D01*
X107621309Y-52452380D01*
X107478452Y-52404761D01*
X107383214Y-52309523D01*
X107335595Y-52214285D01*
X107287976Y-52023809D01*
X107287976Y-51880952D01*
X107335595Y-51690476D01*
X107383214Y-51595238D01*
X107478452Y-51500000D01*
X107621309Y-51452380D01*
X107716547Y-51452380D01*
X107859404Y-51500000D01*
X107907023Y-51547619D01*
X108335595Y-52452380D02*
X108335595Y-51452380D01*
X108764166Y-52452380D02*
X108764166Y-51928571D01*
X108716547Y-51833333D01*
X108621309Y-51785714D01*
X108478452Y-51785714D01*
X108383214Y-51833333D01*
X108335595Y-51880952D01*
X109668928Y-52452380D02*
X109668928Y-51928571D01*
X109621309Y-51833333D01*
X109526071Y-51785714D01*
X109335595Y-51785714D01*
X109240357Y-51833333D01*
X109668928Y-52404761D02*
X109573690Y-52452380D01*
X109335595Y-52452380D01*
X109240357Y-52404761D01*
X109192738Y-52309523D01*
X109192738Y-52214285D01*
X109240357Y-52119047D01*
X109335595Y-52071428D01*
X109573690Y-52071428D01*
X109668928Y-52023809D01*
X110145119Y-51785714D02*
X110145119Y-52452380D01*
X110145119Y-51880952D02*
X110192738Y-51833333D01*
X110287976Y-51785714D01*
X110430833Y-51785714D01*
X110526071Y-51833333D01*
X110573690Y-51928571D01*
X110573690Y-52452380D01*
X111049880Y-51785714D02*
X111049880Y-52452380D01*
X111049880Y-51880952D02*
X111097500Y-51833333D01*
X111192738Y-51785714D01*
X111335595Y-51785714D01*
X111430833Y-51833333D01*
X111478452Y-51928571D01*
X111478452Y-52452380D01*
X112335595Y-52404761D02*
X112240357Y-52452380D01*
X112049880Y-52452380D01*
X111954642Y-52404761D01*
X111907023Y-52309523D01*
X111907023Y-51928571D01*
X111954642Y-51833333D01*
X112049880Y-51785714D01*
X112240357Y-51785714D01*
X112335595Y-51833333D01*
X112383214Y-51928571D01*
X112383214Y-52023809D01*
X111907023Y-52119047D01*
X112954642Y-52452380D02*
X112859404Y-52404761D01*
X112811785Y-52309523D01*
X112811785Y-51452380D01*
X114287976Y-51452380D02*
X114383214Y-51452380D01*
X114478452Y-51500000D01*
X114526071Y-51547619D01*
X114573690Y-51642857D01*
X114621309Y-51833333D01*
X114621309Y-52071428D01*
X114573690Y-52261904D01*
X114526071Y-52357142D01*
X114478452Y-52404761D01*
X114383214Y-52452380D01*
X114287976Y-52452380D01*
X114192738Y-52404761D01*
X114145119Y-52357142D01*
X114097500Y-52261904D01*
X114049880Y-52071428D01*
X114049880Y-51833333D01*
X114097500Y-51642857D01*
X114145119Y-51547619D01*
X114192738Y-51500000D01*
X114287976Y-51452380D01*
X115002261Y-51547619D02*
X115049880Y-51500000D01*
X115145119Y-51452380D01*
X115383214Y-51452380D01*
X115478452Y-51500000D01*
X115526071Y-51547619D01*
X115573690Y-51642857D01*
X115573690Y-51738095D01*
X115526071Y-51880952D01*
X114954642Y-52452380D01*
X115573690Y-52452380D01*
X107907023Y-42357142D02*
X107859404Y-42404761D01*
X107716547Y-42452380D01*
X107621309Y-42452380D01*
X107478452Y-42404761D01*
X107383214Y-42309523D01*
X107335595Y-42214285D01*
X107287976Y-42023809D01*
X107287976Y-41880952D01*
X107335595Y-41690476D01*
X107383214Y-41595238D01*
X107478452Y-41500000D01*
X107621309Y-41452380D01*
X107716547Y-41452380D01*
X107859404Y-41500000D01*
X107907023Y-41547619D01*
X108335595Y-42452380D02*
X108335595Y-41452380D01*
X108764166Y-42452380D02*
X108764166Y-41928571D01*
X108716547Y-41833333D01*
X108621309Y-41785714D01*
X108478452Y-41785714D01*
X108383214Y-41833333D01*
X108335595Y-41880952D01*
X109668928Y-42452380D02*
X109668928Y-41928571D01*
X109621309Y-41833333D01*
X109526071Y-41785714D01*
X109335595Y-41785714D01*
X109240357Y-41833333D01*
X109668928Y-42404761D02*
X109573690Y-42452380D01*
X109335595Y-42452380D01*
X109240357Y-42404761D01*
X109192738Y-42309523D01*
X109192738Y-42214285D01*
X109240357Y-42119047D01*
X109335595Y-42071428D01*
X109573690Y-42071428D01*
X109668928Y-42023809D01*
X110145119Y-41785714D02*
X110145119Y-42452380D01*
X110145119Y-41880952D02*
X110192738Y-41833333D01*
X110287976Y-41785714D01*
X110430833Y-41785714D01*
X110526071Y-41833333D01*
X110573690Y-41928571D01*
X110573690Y-42452380D01*
X111049880Y-41785714D02*
X111049880Y-42452380D01*
X111049880Y-41880952D02*
X111097500Y-41833333D01*
X111192738Y-41785714D01*
X111335595Y-41785714D01*
X111430833Y-41833333D01*
X111478452Y-41928571D01*
X111478452Y-42452380D01*
X112335595Y-42404761D02*
X112240357Y-42452380D01*
X112049880Y-42452380D01*
X111954642Y-42404761D01*
X111907023Y-42309523D01*
X111907023Y-41928571D01*
X111954642Y-41833333D01*
X112049880Y-41785714D01*
X112240357Y-41785714D01*
X112335595Y-41833333D01*
X112383214Y-41928571D01*
X112383214Y-42023809D01*
X111907023Y-42119047D01*
X112954642Y-42452380D02*
X112859404Y-42404761D01*
X112811785Y-42309523D01*
X112811785Y-41452380D01*
X114287976Y-41452380D02*
X114383214Y-41452380D01*
X114478452Y-41500000D01*
X114526071Y-41547619D01*
X114573690Y-41642857D01*
X114621309Y-41833333D01*
X114621309Y-42071428D01*
X114573690Y-42261904D01*
X114526071Y-42357142D01*
X114478452Y-42404761D01*
X114383214Y-42452380D01*
X114287976Y-42452380D01*
X114192738Y-42404761D01*
X114145119Y-42357142D01*
X114097500Y-42261904D01*
X114049880Y-42071428D01*
X114049880Y-41833333D01*
X114097500Y-41642857D01*
X114145119Y-41547619D01*
X114192738Y-41500000D01*
X114287976Y-41452380D01*
X115573690Y-42452380D02*
X115002261Y-42452380D01*
X115287976Y-42452380D02*
X115287976Y-41452380D01*
X115192738Y-41595238D01*
X115097500Y-41690476D01*
X115002261Y-41738095D01*
X107335595Y-31452380D02*
X107335595Y-32261904D01*
X107383214Y-32357142D01*
X107430833Y-32404761D01*
X107526071Y-32452380D01*
X107716547Y-32452380D01*
X107811785Y-32404761D01*
X107859404Y-32357142D01*
X107907023Y-32261904D01*
X107907023Y-31452380D01*
X108383214Y-31785714D02*
X108383214Y-32452380D01*
X108383214Y-31880952D02*
X108430833Y-31833333D01*
X108526071Y-31785714D01*
X108668928Y-31785714D01*
X108764166Y-31833333D01*
X108811785Y-31928571D01*
X108811785Y-32452380D01*
X109716547Y-32452380D02*
X109716547Y-31452380D01*
X109716547Y-32404761D02*
X109621309Y-32452380D01*
X109430833Y-32452380D01*
X109335595Y-32404761D01*
X109287976Y-32357142D01*
X109240357Y-32261904D01*
X109240357Y-31976190D01*
X109287976Y-31880952D01*
X109335595Y-31833333D01*
X109430833Y-31785714D01*
X109621309Y-31785714D01*
X109716547Y-31833333D01*
X110573690Y-32404761D02*
X110478452Y-32452380D01*
X110287976Y-32452380D01*
X110192738Y-32404761D01*
X110145119Y-32309523D01*
X110145119Y-31928571D01*
X110192738Y-31833333D01*
X110287976Y-31785714D01*
X110478452Y-31785714D01*
X110573690Y-31833333D01*
X110621309Y-31928571D01*
X110621309Y-32023809D01*
X110145119Y-32119047D01*
X111049880Y-32452380D02*
X111049880Y-31785714D01*
X111049880Y-31976190D02*
X111097500Y-31880952D01*
X111145119Y-31833333D01*
X111240357Y-31785714D01*
X111335595Y-31785714D01*
%TO.C,D151*%
X117452380Y-170690476D02*
X116452380Y-170690476D01*
X116452380Y-170452380D01*
X116500000Y-170309523D01*
X116595238Y-170214285D01*
X116690476Y-170166666D01*
X116880952Y-170119047D01*
X117023809Y-170119047D01*
X117214285Y-170166666D01*
X117309523Y-170214285D01*
X117404761Y-170309523D01*
X117452380Y-170452380D01*
X117452380Y-170690476D01*
X117452380Y-169166666D02*
X117452380Y-169738095D01*
X117452380Y-169452380D02*
X116452380Y-169452380D01*
X116595238Y-169547619D01*
X116690476Y-169642857D01*
X116738095Y-169738095D01*
X116452380Y-168261904D02*
X116452380Y-168738095D01*
X116928571Y-168785714D01*
X116880952Y-168738095D01*
X116833333Y-168642857D01*
X116833333Y-168404761D01*
X116880952Y-168309523D01*
X116928571Y-168261904D01*
X117023809Y-168214285D01*
X117261904Y-168214285D01*
X117357142Y-168261904D01*
X117404761Y-168309523D01*
X117452380Y-168404761D01*
X117452380Y-168642857D01*
X117404761Y-168738095D01*
X117357142Y-168785714D01*
X117452380Y-167261904D02*
X117452380Y-167833333D01*
X117452380Y-167547619D02*
X116452380Y-167547619D01*
X116595238Y-167642857D01*
X116690476Y-167738095D01*
X116738095Y-167833333D01*
%TO.C,D141*%
X117452380Y-180690476D02*
X116452380Y-180690476D01*
X116452380Y-180452380D01*
X116500000Y-180309523D01*
X116595238Y-180214285D01*
X116690476Y-180166666D01*
X116880952Y-180119047D01*
X117023809Y-180119047D01*
X117214285Y-180166666D01*
X117309523Y-180214285D01*
X117404761Y-180309523D01*
X117452380Y-180452380D01*
X117452380Y-180690476D01*
X117452380Y-179166666D02*
X117452380Y-179738095D01*
X117452380Y-179452380D02*
X116452380Y-179452380D01*
X116595238Y-179547619D01*
X116690476Y-179642857D01*
X116738095Y-179738095D01*
X116785714Y-178309523D02*
X117452380Y-178309523D01*
X116404761Y-178547619D02*
X117119047Y-178785714D01*
X117119047Y-178166666D01*
X117452380Y-177261904D02*
X117452380Y-177833333D01*
X117452380Y-177547619D02*
X116452380Y-177547619D01*
X116595238Y-177642857D01*
X116690476Y-177738095D01*
X116738095Y-177833333D01*
%TO.C,D131*%
X117452380Y-160690476D02*
X116452380Y-160690476D01*
X116452380Y-160452380D01*
X116500000Y-160309523D01*
X116595238Y-160214285D01*
X116690476Y-160166666D01*
X116880952Y-160119047D01*
X117023809Y-160119047D01*
X117214285Y-160166666D01*
X117309523Y-160214285D01*
X117404761Y-160309523D01*
X117452380Y-160452380D01*
X117452380Y-160690476D01*
X117452380Y-159166666D02*
X117452380Y-159738095D01*
X117452380Y-159452380D02*
X116452380Y-159452380D01*
X116595238Y-159547619D01*
X116690476Y-159642857D01*
X116738095Y-159738095D01*
X116452380Y-158833333D02*
X116452380Y-158214285D01*
X116833333Y-158547619D01*
X116833333Y-158404761D01*
X116880952Y-158309523D01*
X116928571Y-158261904D01*
X117023809Y-158214285D01*
X117261904Y-158214285D01*
X117357142Y-158261904D01*
X117404761Y-158309523D01*
X117452380Y-158404761D01*
X117452380Y-158690476D01*
X117404761Y-158785714D01*
X117357142Y-158833333D01*
X117452380Y-157261904D02*
X117452380Y-157833333D01*
X117452380Y-157547619D02*
X116452380Y-157547619D01*
X116595238Y-157642857D01*
X116690476Y-157738095D01*
X116738095Y-157833333D01*
%TO.C,D121*%
X117452380Y-150690476D02*
X116452380Y-150690476D01*
X116452380Y-150452380D01*
X116500000Y-150309523D01*
X116595238Y-150214285D01*
X116690476Y-150166666D01*
X116880952Y-150119047D01*
X117023809Y-150119047D01*
X117214285Y-150166666D01*
X117309523Y-150214285D01*
X117404761Y-150309523D01*
X117452380Y-150452380D01*
X117452380Y-150690476D01*
X117452380Y-149166666D02*
X117452380Y-149738095D01*
X117452380Y-149452380D02*
X116452380Y-149452380D01*
X116595238Y-149547619D01*
X116690476Y-149642857D01*
X116738095Y-149738095D01*
X116547619Y-148785714D02*
X116500000Y-148738095D01*
X116452380Y-148642857D01*
X116452380Y-148404761D01*
X116500000Y-148309523D01*
X116547619Y-148261904D01*
X116642857Y-148214285D01*
X116738095Y-148214285D01*
X116880952Y-148261904D01*
X117452380Y-148833333D01*
X117452380Y-148214285D01*
X117452380Y-147261904D02*
X117452380Y-147833333D01*
X117452380Y-147547619D02*
X116452380Y-147547619D01*
X116595238Y-147642857D01*
X116690476Y-147738095D01*
X116738095Y-147833333D01*
%TO.C,D111*%
X117452380Y-140690476D02*
X116452380Y-140690476D01*
X116452380Y-140452380D01*
X116500000Y-140309523D01*
X116595238Y-140214285D01*
X116690476Y-140166666D01*
X116880952Y-140119047D01*
X117023809Y-140119047D01*
X117214285Y-140166666D01*
X117309523Y-140214285D01*
X117404761Y-140309523D01*
X117452380Y-140452380D01*
X117452380Y-140690476D01*
X117452380Y-139166666D02*
X117452380Y-139738095D01*
X117452380Y-139452380D02*
X116452380Y-139452380D01*
X116595238Y-139547619D01*
X116690476Y-139642857D01*
X116738095Y-139738095D01*
X117452380Y-138214285D02*
X117452380Y-138785714D01*
X117452380Y-138500000D02*
X116452380Y-138500000D01*
X116595238Y-138595238D01*
X116690476Y-138690476D01*
X116738095Y-138785714D01*
X117452380Y-137261904D02*
X117452380Y-137833333D01*
X117452380Y-137547619D02*
X116452380Y-137547619D01*
X116595238Y-137642857D01*
X116690476Y-137738095D01*
X116738095Y-137833333D01*
%TO.C,D101*%
X117452380Y-130690476D02*
X116452380Y-130690476D01*
X116452380Y-130452380D01*
X116500000Y-130309523D01*
X116595238Y-130214285D01*
X116690476Y-130166666D01*
X116880952Y-130119047D01*
X117023809Y-130119047D01*
X117214285Y-130166666D01*
X117309523Y-130214285D01*
X117404761Y-130309523D01*
X117452380Y-130452380D01*
X117452380Y-130690476D01*
X117452380Y-129166666D02*
X117452380Y-129738095D01*
X117452380Y-129452380D02*
X116452380Y-129452380D01*
X116595238Y-129547619D01*
X116690476Y-129642857D01*
X116738095Y-129738095D01*
X116452380Y-128547619D02*
X116452380Y-128452380D01*
X116500000Y-128357142D01*
X116547619Y-128309523D01*
X116642857Y-128261904D01*
X116833333Y-128214285D01*
X117071428Y-128214285D01*
X117261904Y-128261904D01*
X117357142Y-128309523D01*
X117404761Y-128357142D01*
X117452380Y-128452380D01*
X117452380Y-128547619D01*
X117404761Y-128642857D01*
X117357142Y-128690476D01*
X117261904Y-128738095D01*
X117071428Y-128785714D01*
X116833333Y-128785714D01*
X116642857Y-128738095D01*
X116547619Y-128690476D01*
X116500000Y-128642857D01*
X116452380Y-128547619D01*
X117452380Y-127261904D02*
X117452380Y-127833333D01*
X117452380Y-127547619D02*
X116452380Y-127547619D01*
X116595238Y-127642857D01*
X116690476Y-127738095D01*
X116738095Y-127833333D01*
%TO.C,D091*%
X117452380Y-120690476D02*
X116452380Y-120690476D01*
X116452380Y-120452380D01*
X116500000Y-120309523D01*
X116595238Y-120214285D01*
X116690476Y-120166666D01*
X116880952Y-120119047D01*
X117023809Y-120119047D01*
X117214285Y-120166666D01*
X117309523Y-120214285D01*
X117404761Y-120309523D01*
X117452380Y-120452380D01*
X117452380Y-120690476D01*
X116452380Y-119500000D02*
X116452380Y-119404761D01*
X116500000Y-119309523D01*
X116547619Y-119261904D01*
X116642857Y-119214285D01*
X116833333Y-119166666D01*
X117071428Y-119166666D01*
X117261904Y-119214285D01*
X117357142Y-119261904D01*
X117404761Y-119309523D01*
X117452380Y-119404761D01*
X117452380Y-119500000D01*
X117404761Y-119595238D01*
X117357142Y-119642857D01*
X117261904Y-119690476D01*
X117071428Y-119738095D01*
X116833333Y-119738095D01*
X116642857Y-119690476D01*
X116547619Y-119642857D01*
X116500000Y-119595238D01*
X116452380Y-119500000D01*
X117452380Y-118690476D02*
X117452380Y-118500000D01*
X117404761Y-118404761D01*
X117357142Y-118357142D01*
X117214285Y-118261904D01*
X117023809Y-118214285D01*
X116642857Y-118214285D01*
X116547619Y-118261904D01*
X116500000Y-118309523D01*
X116452380Y-118404761D01*
X116452380Y-118595238D01*
X116500000Y-118690476D01*
X116547619Y-118738095D01*
X116642857Y-118785714D01*
X116880952Y-118785714D01*
X116976190Y-118738095D01*
X117023809Y-118690476D01*
X117071428Y-118595238D01*
X117071428Y-118404761D01*
X117023809Y-118309523D01*
X116976190Y-118261904D01*
X116880952Y-118214285D01*
X117452380Y-117261904D02*
X117452380Y-117833333D01*
X117452380Y-117547619D02*
X116452380Y-117547619D01*
X116595238Y-117642857D01*
X116690476Y-117738095D01*
X116738095Y-117833333D01*
%TO.C,D081*%
X117452380Y-110690476D02*
X116452380Y-110690476D01*
X116452380Y-110452380D01*
X116500000Y-110309523D01*
X116595238Y-110214285D01*
X116690476Y-110166666D01*
X116880952Y-110119047D01*
X117023809Y-110119047D01*
X117214285Y-110166666D01*
X117309523Y-110214285D01*
X117404761Y-110309523D01*
X117452380Y-110452380D01*
X117452380Y-110690476D01*
X116452380Y-109500000D02*
X116452380Y-109404761D01*
X116500000Y-109309523D01*
X116547619Y-109261904D01*
X116642857Y-109214285D01*
X116833333Y-109166666D01*
X117071428Y-109166666D01*
X117261904Y-109214285D01*
X117357142Y-109261904D01*
X117404761Y-109309523D01*
X117452380Y-109404761D01*
X117452380Y-109500000D01*
X117404761Y-109595238D01*
X117357142Y-109642857D01*
X117261904Y-109690476D01*
X117071428Y-109738095D01*
X116833333Y-109738095D01*
X116642857Y-109690476D01*
X116547619Y-109642857D01*
X116500000Y-109595238D01*
X116452380Y-109500000D01*
X116880952Y-108595238D02*
X116833333Y-108690476D01*
X116785714Y-108738095D01*
X116690476Y-108785714D01*
X116642857Y-108785714D01*
X116547619Y-108738095D01*
X116500000Y-108690476D01*
X116452380Y-108595238D01*
X116452380Y-108404761D01*
X116500000Y-108309523D01*
X116547619Y-108261904D01*
X116642857Y-108214285D01*
X116690476Y-108214285D01*
X116785714Y-108261904D01*
X116833333Y-108309523D01*
X116880952Y-108404761D01*
X116880952Y-108595238D01*
X116928571Y-108690476D01*
X116976190Y-108738095D01*
X117071428Y-108785714D01*
X117261904Y-108785714D01*
X117357142Y-108738095D01*
X117404761Y-108690476D01*
X117452380Y-108595238D01*
X117452380Y-108404761D01*
X117404761Y-108309523D01*
X117357142Y-108261904D01*
X117261904Y-108214285D01*
X117071428Y-108214285D01*
X116976190Y-108261904D01*
X116928571Y-108309523D01*
X116880952Y-108404761D01*
X117452380Y-107261904D02*
X117452380Y-107833333D01*
X117452380Y-107547619D02*
X116452380Y-107547619D01*
X116595238Y-107642857D01*
X116690476Y-107738095D01*
X116738095Y-107833333D01*
%TO.C,D071*%
X117452380Y-100690476D02*
X116452380Y-100690476D01*
X116452380Y-100452380D01*
X116500000Y-100309523D01*
X116595238Y-100214285D01*
X116690476Y-100166666D01*
X116880952Y-100119047D01*
X117023809Y-100119047D01*
X117214285Y-100166666D01*
X117309523Y-100214285D01*
X117404761Y-100309523D01*
X117452380Y-100452380D01*
X117452380Y-100690476D01*
X116452380Y-99500000D02*
X116452380Y-99404761D01*
X116500000Y-99309523D01*
X116547619Y-99261904D01*
X116642857Y-99214285D01*
X116833333Y-99166666D01*
X117071428Y-99166666D01*
X117261904Y-99214285D01*
X117357142Y-99261904D01*
X117404761Y-99309523D01*
X117452380Y-99404761D01*
X117452380Y-99500000D01*
X117404761Y-99595238D01*
X117357142Y-99642857D01*
X117261904Y-99690476D01*
X117071428Y-99738095D01*
X116833333Y-99738095D01*
X116642857Y-99690476D01*
X116547619Y-99642857D01*
X116500000Y-99595238D01*
X116452380Y-99500000D01*
X116452380Y-98833333D02*
X116452380Y-98166666D01*
X117452380Y-98595238D01*
X117452380Y-97261904D02*
X117452380Y-97833333D01*
X117452380Y-97547619D02*
X116452380Y-97547619D01*
X116595238Y-97642857D01*
X116690476Y-97738095D01*
X116738095Y-97833333D01*
%TO.C,D061*%
X117452380Y-90690476D02*
X116452380Y-90690476D01*
X116452380Y-90452380D01*
X116500000Y-90309523D01*
X116595238Y-90214285D01*
X116690476Y-90166666D01*
X116880952Y-90119047D01*
X117023809Y-90119047D01*
X117214285Y-90166666D01*
X117309523Y-90214285D01*
X117404761Y-90309523D01*
X117452380Y-90452380D01*
X117452380Y-90690476D01*
X116452380Y-89500000D02*
X116452380Y-89404761D01*
X116500000Y-89309523D01*
X116547619Y-89261904D01*
X116642857Y-89214285D01*
X116833333Y-89166666D01*
X117071428Y-89166666D01*
X117261904Y-89214285D01*
X117357142Y-89261904D01*
X117404761Y-89309523D01*
X117452380Y-89404761D01*
X117452380Y-89500000D01*
X117404761Y-89595238D01*
X117357142Y-89642857D01*
X117261904Y-89690476D01*
X117071428Y-89738095D01*
X116833333Y-89738095D01*
X116642857Y-89690476D01*
X116547619Y-89642857D01*
X116500000Y-89595238D01*
X116452380Y-89500000D01*
X116452380Y-88309523D02*
X116452380Y-88500000D01*
X116500000Y-88595238D01*
X116547619Y-88642857D01*
X116690476Y-88738095D01*
X116880952Y-88785714D01*
X117261904Y-88785714D01*
X117357142Y-88738095D01*
X117404761Y-88690476D01*
X117452380Y-88595238D01*
X117452380Y-88404761D01*
X117404761Y-88309523D01*
X117357142Y-88261904D01*
X117261904Y-88214285D01*
X117023809Y-88214285D01*
X116928571Y-88261904D01*
X116880952Y-88309523D01*
X116833333Y-88404761D01*
X116833333Y-88595238D01*
X116880952Y-88690476D01*
X116928571Y-88738095D01*
X117023809Y-88785714D01*
X117452380Y-87261904D02*
X117452380Y-87833333D01*
X117452380Y-87547619D02*
X116452380Y-87547619D01*
X116595238Y-87642857D01*
X116690476Y-87738095D01*
X116738095Y-87833333D01*
%TO.C,D051*%
X117452380Y-80690476D02*
X116452380Y-80690476D01*
X116452380Y-80452380D01*
X116500000Y-80309523D01*
X116595238Y-80214285D01*
X116690476Y-80166666D01*
X116880952Y-80119047D01*
X117023809Y-80119047D01*
X117214285Y-80166666D01*
X117309523Y-80214285D01*
X117404761Y-80309523D01*
X117452380Y-80452380D01*
X117452380Y-80690476D01*
X116452380Y-79500000D02*
X116452380Y-79404761D01*
X116500000Y-79309523D01*
X116547619Y-79261904D01*
X116642857Y-79214285D01*
X116833333Y-79166666D01*
X117071428Y-79166666D01*
X117261904Y-79214285D01*
X117357142Y-79261904D01*
X117404761Y-79309523D01*
X117452380Y-79404761D01*
X117452380Y-79500000D01*
X117404761Y-79595238D01*
X117357142Y-79642857D01*
X117261904Y-79690476D01*
X117071428Y-79738095D01*
X116833333Y-79738095D01*
X116642857Y-79690476D01*
X116547619Y-79642857D01*
X116500000Y-79595238D01*
X116452380Y-79500000D01*
X116452380Y-78261904D02*
X116452380Y-78738095D01*
X116928571Y-78785714D01*
X116880952Y-78738095D01*
X116833333Y-78642857D01*
X116833333Y-78404761D01*
X116880952Y-78309523D01*
X116928571Y-78261904D01*
X117023809Y-78214285D01*
X117261904Y-78214285D01*
X117357142Y-78261904D01*
X117404761Y-78309523D01*
X117452380Y-78404761D01*
X117452380Y-78642857D01*
X117404761Y-78738095D01*
X117357142Y-78785714D01*
X117452380Y-77261904D02*
X117452380Y-77833333D01*
X117452380Y-77547619D02*
X116452380Y-77547619D01*
X116595238Y-77642857D01*
X116690476Y-77738095D01*
X116738095Y-77833333D01*
%TO.C,D041*%
X117452380Y-70690476D02*
X116452380Y-70690476D01*
X116452380Y-70452380D01*
X116500000Y-70309523D01*
X116595238Y-70214285D01*
X116690476Y-70166666D01*
X116880952Y-70119047D01*
X117023809Y-70119047D01*
X117214285Y-70166666D01*
X117309523Y-70214285D01*
X117404761Y-70309523D01*
X117452380Y-70452380D01*
X117452380Y-70690476D01*
X116452380Y-69500000D02*
X116452380Y-69404761D01*
X116500000Y-69309523D01*
X116547619Y-69261904D01*
X116642857Y-69214285D01*
X116833333Y-69166666D01*
X117071428Y-69166666D01*
X117261904Y-69214285D01*
X117357142Y-69261904D01*
X117404761Y-69309523D01*
X117452380Y-69404761D01*
X117452380Y-69500000D01*
X117404761Y-69595238D01*
X117357142Y-69642857D01*
X117261904Y-69690476D01*
X117071428Y-69738095D01*
X116833333Y-69738095D01*
X116642857Y-69690476D01*
X116547619Y-69642857D01*
X116500000Y-69595238D01*
X116452380Y-69500000D01*
X116785714Y-68309523D02*
X117452380Y-68309523D01*
X116404761Y-68547619D02*
X117119047Y-68785714D01*
X117119047Y-68166666D01*
X117452380Y-67261904D02*
X117452380Y-67833333D01*
X117452380Y-67547619D02*
X116452380Y-67547619D01*
X116595238Y-67642857D01*
X116690476Y-67738095D01*
X116738095Y-67833333D01*
%TO.C,D031*%
X117452380Y-60690476D02*
X116452380Y-60690476D01*
X116452380Y-60452380D01*
X116500000Y-60309523D01*
X116595238Y-60214285D01*
X116690476Y-60166666D01*
X116880952Y-60119047D01*
X117023809Y-60119047D01*
X117214285Y-60166666D01*
X117309523Y-60214285D01*
X117404761Y-60309523D01*
X117452380Y-60452380D01*
X117452380Y-60690476D01*
X116452380Y-59500000D02*
X116452380Y-59404761D01*
X116500000Y-59309523D01*
X116547619Y-59261904D01*
X116642857Y-59214285D01*
X116833333Y-59166666D01*
X117071428Y-59166666D01*
X117261904Y-59214285D01*
X117357142Y-59261904D01*
X117404761Y-59309523D01*
X117452380Y-59404761D01*
X117452380Y-59500000D01*
X117404761Y-59595238D01*
X117357142Y-59642857D01*
X117261904Y-59690476D01*
X117071428Y-59738095D01*
X116833333Y-59738095D01*
X116642857Y-59690476D01*
X116547619Y-59642857D01*
X116500000Y-59595238D01*
X116452380Y-59500000D01*
X116452380Y-58833333D02*
X116452380Y-58214285D01*
X116833333Y-58547619D01*
X116833333Y-58404761D01*
X116880952Y-58309523D01*
X116928571Y-58261904D01*
X117023809Y-58214285D01*
X117261904Y-58214285D01*
X117357142Y-58261904D01*
X117404761Y-58309523D01*
X117452380Y-58404761D01*
X117452380Y-58690476D01*
X117404761Y-58785714D01*
X117357142Y-58833333D01*
X117452380Y-57261904D02*
X117452380Y-57833333D01*
X117452380Y-57547619D02*
X116452380Y-57547619D01*
X116595238Y-57642857D01*
X116690476Y-57738095D01*
X116738095Y-57833333D01*
%TO.C,D021*%
X117452380Y-50690476D02*
X116452380Y-50690476D01*
X116452380Y-50452380D01*
X116500000Y-50309523D01*
X116595238Y-50214285D01*
X116690476Y-50166666D01*
X116880952Y-50119047D01*
X117023809Y-50119047D01*
X117214285Y-50166666D01*
X117309523Y-50214285D01*
X117404761Y-50309523D01*
X117452380Y-50452380D01*
X117452380Y-50690476D01*
X116452380Y-49500000D02*
X116452380Y-49404761D01*
X116500000Y-49309523D01*
X116547619Y-49261904D01*
X116642857Y-49214285D01*
X116833333Y-49166666D01*
X117071428Y-49166666D01*
X117261904Y-49214285D01*
X117357142Y-49261904D01*
X117404761Y-49309523D01*
X117452380Y-49404761D01*
X117452380Y-49500000D01*
X117404761Y-49595238D01*
X117357142Y-49642857D01*
X117261904Y-49690476D01*
X117071428Y-49738095D01*
X116833333Y-49738095D01*
X116642857Y-49690476D01*
X116547619Y-49642857D01*
X116500000Y-49595238D01*
X116452380Y-49500000D01*
X116547619Y-48785714D02*
X116500000Y-48738095D01*
X116452380Y-48642857D01*
X116452380Y-48404761D01*
X116500000Y-48309523D01*
X116547619Y-48261904D01*
X116642857Y-48214285D01*
X116738095Y-48214285D01*
X116880952Y-48261904D01*
X117452380Y-48833333D01*
X117452380Y-48214285D01*
X117452380Y-47261904D02*
X117452380Y-47833333D01*
X117452380Y-47547619D02*
X116452380Y-47547619D01*
X116595238Y-47642857D01*
X116690476Y-47738095D01*
X116738095Y-47833333D01*
%TO.C,D011*%
X117452380Y-40690476D02*
X116452380Y-40690476D01*
X116452380Y-40452380D01*
X116500000Y-40309523D01*
X116595238Y-40214285D01*
X116690476Y-40166666D01*
X116880952Y-40119047D01*
X117023809Y-40119047D01*
X117214285Y-40166666D01*
X117309523Y-40214285D01*
X117404761Y-40309523D01*
X117452380Y-40452380D01*
X117452380Y-40690476D01*
X116452380Y-39500000D02*
X116452380Y-39404761D01*
X116500000Y-39309523D01*
X116547619Y-39261904D01*
X116642857Y-39214285D01*
X116833333Y-39166666D01*
X117071428Y-39166666D01*
X117261904Y-39214285D01*
X117357142Y-39261904D01*
X117404761Y-39309523D01*
X117452380Y-39404761D01*
X117452380Y-39500000D01*
X117404761Y-39595238D01*
X117357142Y-39642857D01*
X117261904Y-39690476D01*
X117071428Y-39738095D01*
X116833333Y-39738095D01*
X116642857Y-39690476D01*
X116547619Y-39642857D01*
X116500000Y-39595238D01*
X116452380Y-39500000D01*
X117452380Y-38214285D02*
X117452380Y-38785714D01*
X117452380Y-38500000D02*
X116452380Y-38500000D01*
X116595238Y-38595238D01*
X116690476Y-38690476D01*
X116738095Y-38785714D01*
X117452380Y-37261904D02*
X117452380Y-37833333D01*
X117452380Y-37547619D02*
X116452380Y-37547619D01*
X116595238Y-37642857D01*
X116690476Y-37738095D01*
X116738095Y-37833333D01*
%TO.C,D001*%
X117452380Y-29690476D02*
X116452380Y-29690476D01*
X116452380Y-29452380D01*
X116500000Y-29309523D01*
X116595238Y-29214285D01*
X116690476Y-29166666D01*
X116880952Y-29119047D01*
X117023809Y-29119047D01*
X117214285Y-29166666D01*
X117309523Y-29214285D01*
X117404761Y-29309523D01*
X117452380Y-29452380D01*
X117452380Y-29690476D01*
X116452380Y-28500000D02*
X116452380Y-28404761D01*
X116500000Y-28309523D01*
X116547619Y-28261904D01*
X116642857Y-28214285D01*
X116833333Y-28166666D01*
X117071428Y-28166666D01*
X117261904Y-28214285D01*
X117357142Y-28261904D01*
X117404761Y-28309523D01*
X117452380Y-28404761D01*
X117452380Y-28500000D01*
X117404761Y-28595238D01*
X117357142Y-28642857D01*
X117261904Y-28690476D01*
X117071428Y-28738095D01*
X116833333Y-28738095D01*
X116642857Y-28690476D01*
X116547619Y-28642857D01*
X116500000Y-28595238D01*
X116452380Y-28500000D01*
X116452380Y-27547619D02*
X116452380Y-27452380D01*
X116500000Y-27357142D01*
X116547619Y-27309523D01*
X116642857Y-27261904D01*
X116833333Y-27214285D01*
X117071428Y-27214285D01*
X117261904Y-27261904D01*
X117357142Y-27309523D01*
X117404761Y-27357142D01*
X117452380Y-27452380D01*
X117452380Y-27547619D01*
X117404761Y-27642857D01*
X117357142Y-27690476D01*
X117261904Y-27738095D01*
X117071428Y-27785714D01*
X116833333Y-27785714D01*
X116642857Y-27738095D01*
X116547619Y-27690476D01*
X116500000Y-27642857D01*
X116452380Y-27547619D01*
X117452380Y-26261904D02*
X117452380Y-26833333D01*
X117452380Y-26547619D02*
X116452380Y-26547619D01*
X116595238Y-26642857D01*
X116690476Y-26738095D01*
X116738095Y-26833333D01*
%TO.C,D022*%
X117452380Y-55690476D02*
X116452380Y-55690476D01*
X116452380Y-55452380D01*
X116500000Y-55309523D01*
X116595238Y-55214285D01*
X116690476Y-55166666D01*
X116880952Y-55119047D01*
X117023809Y-55119047D01*
X117214285Y-55166666D01*
X117309523Y-55214285D01*
X117404761Y-55309523D01*
X117452380Y-55452380D01*
X117452380Y-55690476D01*
X116452380Y-54500000D02*
X116452380Y-54404761D01*
X116500000Y-54309523D01*
X116547619Y-54261904D01*
X116642857Y-54214285D01*
X116833333Y-54166666D01*
X117071428Y-54166666D01*
X117261904Y-54214285D01*
X117357142Y-54261904D01*
X117404761Y-54309523D01*
X117452380Y-54404761D01*
X117452380Y-54500000D01*
X117404761Y-54595238D01*
X117357142Y-54642857D01*
X117261904Y-54690476D01*
X117071428Y-54738095D01*
X116833333Y-54738095D01*
X116642857Y-54690476D01*
X116547619Y-54642857D01*
X116500000Y-54595238D01*
X116452380Y-54500000D01*
X116547619Y-53785714D02*
X116500000Y-53738095D01*
X116452380Y-53642857D01*
X116452380Y-53404761D01*
X116500000Y-53309523D01*
X116547619Y-53261904D01*
X116642857Y-53214285D01*
X116738095Y-53214285D01*
X116880952Y-53261904D01*
X117452380Y-53833333D01*
X117452380Y-53214285D01*
X116547619Y-52833333D02*
X116500000Y-52785714D01*
X116452380Y-52690476D01*
X116452380Y-52452380D01*
X116500000Y-52357142D01*
X116547619Y-52309523D01*
X116642857Y-52261904D01*
X116738095Y-52261904D01*
X116880952Y-52309523D01*
X117452380Y-52880952D01*
X117452380Y-52261904D01*
%TO.C,D092*%
X117452380Y-125690476D02*
X116452380Y-125690476D01*
X116452380Y-125452380D01*
X116500000Y-125309523D01*
X116595238Y-125214285D01*
X116690476Y-125166666D01*
X116880952Y-125119047D01*
X117023809Y-125119047D01*
X117214285Y-125166666D01*
X117309523Y-125214285D01*
X117404761Y-125309523D01*
X117452380Y-125452380D01*
X117452380Y-125690476D01*
X116452380Y-124500000D02*
X116452380Y-124404761D01*
X116500000Y-124309523D01*
X116547619Y-124261904D01*
X116642857Y-124214285D01*
X116833333Y-124166666D01*
X117071428Y-124166666D01*
X117261904Y-124214285D01*
X117357142Y-124261904D01*
X117404761Y-124309523D01*
X117452380Y-124404761D01*
X117452380Y-124500000D01*
X117404761Y-124595238D01*
X117357142Y-124642857D01*
X117261904Y-124690476D01*
X117071428Y-124738095D01*
X116833333Y-124738095D01*
X116642857Y-124690476D01*
X116547619Y-124642857D01*
X116500000Y-124595238D01*
X116452380Y-124500000D01*
X117452380Y-123690476D02*
X117452380Y-123500000D01*
X117404761Y-123404761D01*
X117357142Y-123357142D01*
X117214285Y-123261904D01*
X117023809Y-123214285D01*
X116642857Y-123214285D01*
X116547619Y-123261904D01*
X116500000Y-123309523D01*
X116452380Y-123404761D01*
X116452380Y-123595238D01*
X116500000Y-123690476D01*
X116547619Y-123738095D01*
X116642857Y-123785714D01*
X116880952Y-123785714D01*
X116976190Y-123738095D01*
X117023809Y-123690476D01*
X117071428Y-123595238D01*
X117071428Y-123404761D01*
X117023809Y-123309523D01*
X116976190Y-123261904D01*
X116880952Y-123214285D01*
X116547619Y-122833333D02*
X116500000Y-122785714D01*
X116452380Y-122690476D01*
X116452380Y-122452380D01*
X116500000Y-122357142D01*
X116547619Y-122309523D01*
X116642857Y-122261904D01*
X116738095Y-122261904D01*
X116880952Y-122309523D01*
X117452380Y-122880952D01*
X117452380Y-122261904D01*
%TO.C,D112*%
X117452380Y-145690476D02*
X116452380Y-145690476D01*
X116452380Y-145452380D01*
X116500000Y-145309523D01*
X116595238Y-145214285D01*
X116690476Y-145166666D01*
X116880952Y-145119047D01*
X117023809Y-145119047D01*
X117214285Y-145166666D01*
X117309523Y-145214285D01*
X117404761Y-145309523D01*
X117452380Y-145452380D01*
X117452380Y-145690476D01*
X117452380Y-144166666D02*
X117452380Y-144738095D01*
X117452380Y-144452380D02*
X116452380Y-144452380D01*
X116595238Y-144547619D01*
X116690476Y-144642857D01*
X116738095Y-144738095D01*
X117452380Y-143214285D02*
X117452380Y-143785714D01*
X117452380Y-143500000D02*
X116452380Y-143500000D01*
X116595238Y-143595238D01*
X116690476Y-143690476D01*
X116738095Y-143785714D01*
X116547619Y-142833333D02*
X116500000Y-142785714D01*
X116452380Y-142690476D01*
X116452380Y-142452380D01*
X116500000Y-142357142D01*
X116547619Y-142309523D01*
X116642857Y-142261904D01*
X116738095Y-142261904D01*
X116880952Y-142309523D01*
X117452380Y-142880952D01*
X117452380Y-142261904D01*
%TO.C,D102*%
X117452380Y-135690476D02*
X116452380Y-135690476D01*
X116452380Y-135452380D01*
X116500000Y-135309523D01*
X116595238Y-135214285D01*
X116690476Y-135166666D01*
X116880952Y-135119047D01*
X117023809Y-135119047D01*
X117214285Y-135166666D01*
X117309523Y-135214285D01*
X117404761Y-135309523D01*
X117452380Y-135452380D01*
X117452380Y-135690476D01*
X117452380Y-134166666D02*
X117452380Y-134738095D01*
X117452380Y-134452380D02*
X116452380Y-134452380D01*
X116595238Y-134547619D01*
X116690476Y-134642857D01*
X116738095Y-134738095D01*
X116452380Y-133547619D02*
X116452380Y-133452380D01*
X116500000Y-133357142D01*
X116547619Y-133309523D01*
X116642857Y-133261904D01*
X116833333Y-133214285D01*
X117071428Y-133214285D01*
X117261904Y-133261904D01*
X117357142Y-133309523D01*
X117404761Y-133357142D01*
X117452380Y-133452380D01*
X117452380Y-133547619D01*
X117404761Y-133642857D01*
X117357142Y-133690476D01*
X117261904Y-133738095D01*
X117071428Y-133785714D01*
X116833333Y-133785714D01*
X116642857Y-133738095D01*
X116547619Y-133690476D01*
X116500000Y-133642857D01*
X116452380Y-133547619D01*
X116547619Y-132833333D02*
X116500000Y-132785714D01*
X116452380Y-132690476D01*
X116452380Y-132452380D01*
X116500000Y-132357142D01*
X116547619Y-132309523D01*
X116642857Y-132261904D01*
X116738095Y-132261904D01*
X116880952Y-132309523D01*
X117452380Y-132880952D01*
X117452380Y-132261904D01*
%TO.C,D132*%
X117452380Y-165690476D02*
X116452380Y-165690476D01*
X116452380Y-165452380D01*
X116500000Y-165309523D01*
X116595238Y-165214285D01*
X116690476Y-165166666D01*
X116880952Y-165119047D01*
X117023809Y-165119047D01*
X117214285Y-165166666D01*
X117309523Y-165214285D01*
X117404761Y-165309523D01*
X117452380Y-165452380D01*
X117452380Y-165690476D01*
X117452380Y-164166666D02*
X117452380Y-164738095D01*
X117452380Y-164452380D02*
X116452380Y-164452380D01*
X116595238Y-164547619D01*
X116690476Y-164642857D01*
X116738095Y-164738095D01*
X116452380Y-163833333D02*
X116452380Y-163214285D01*
X116833333Y-163547619D01*
X116833333Y-163404761D01*
X116880952Y-163309523D01*
X116928571Y-163261904D01*
X117023809Y-163214285D01*
X117261904Y-163214285D01*
X117357142Y-163261904D01*
X117404761Y-163309523D01*
X117452380Y-163404761D01*
X117452380Y-163690476D01*
X117404761Y-163785714D01*
X117357142Y-163833333D01*
X116547619Y-162833333D02*
X116500000Y-162785714D01*
X116452380Y-162690476D01*
X116452380Y-162452380D01*
X116500000Y-162357142D01*
X116547619Y-162309523D01*
X116642857Y-162261904D01*
X116738095Y-162261904D01*
X116880952Y-162309523D01*
X117452380Y-162880952D01*
X117452380Y-162261904D01*
%TO.C,D152*%
X117452380Y-175690476D02*
X116452380Y-175690476D01*
X116452380Y-175452380D01*
X116500000Y-175309523D01*
X116595238Y-175214285D01*
X116690476Y-175166666D01*
X116880952Y-175119047D01*
X117023809Y-175119047D01*
X117214285Y-175166666D01*
X117309523Y-175214285D01*
X117404761Y-175309523D01*
X117452380Y-175452380D01*
X117452380Y-175690476D01*
X117452380Y-174166666D02*
X117452380Y-174738095D01*
X117452380Y-174452380D02*
X116452380Y-174452380D01*
X116595238Y-174547619D01*
X116690476Y-174642857D01*
X116738095Y-174738095D01*
X116452380Y-173261904D02*
X116452380Y-173738095D01*
X116928571Y-173785714D01*
X116880952Y-173738095D01*
X116833333Y-173642857D01*
X116833333Y-173404761D01*
X116880952Y-173309523D01*
X116928571Y-173261904D01*
X117023809Y-173214285D01*
X117261904Y-173214285D01*
X117357142Y-173261904D01*
X117404761Y-173309523D01*
X117452380Y-173404761D01*
X117452380Y-173642857D01*
X117404761Y-173738095D01*
X117357142Y-173785714D01*
X116547619Y-172833333D02*
X116500000Y-172785714D01*
X116452380Y-172690476D01*
X116452380Y-172452380D01*
X116500000Y-172357142D01*
X116547619Y-172309523D01*
X116642857Y-172261904D01*
X116738095Y-172261904D01*
X116880952Y-172309523D01*
X117452380Y-172880952D01*
X117452380Y-172261904D01*
%TO.C,D002*%
X117452380Y-34690476D02*
X116452380Y-34690476D01*
X116452380Y-34452380D01*
X116500000Y-34309523D01*
X116595238Y-34214285D01*
X116690476Y-34166666D01*
X116880952Y-34119047D01*
X117023809Y-34119047D01*
X117214285Y-34166666D01*
X117309523Y-34214285D01*
X117404761Y-34309523D01*
X117452380Y-34452380D01*
X117452380Y-34690476D01*
X116452380Y-33500000D02*
X116452380Y-33404761D01*
X116500000Y-33309523D01*
X116547619Y-33261904D01*
X116642857Y-33214285D01*
X116833333Y-33166666D01*
X117071428Y-33166666D01*
X117261904Y-33214285D01*
X117357142Y-33261904D01*
X117404761Y-33309523D01*
X117452380Y-33404761D01*
X117452380Y-33500000D01*
X117404761Y-33595238D01*
X117357142Y-33642857D01*
X117261904Y-33690476D01*
X117071428Y-33738095D01*
X116833333Y-33738095D01*
X116642857Y-33690476D01*
X116547619Y-33642857D01*
X116500000Y-33595238D01*
X116452380Y-33500000D01*
X116452380Y-32547619D02*
X116452380Y-32452380D01*
X116500000Y-32357142D01*
X116547619Y-32309523D01*
X116642857Y-32261904D01*
X116833333Y-32214285D01*
X117071428Y-32214285D01*
X117261904Y-32261904D01*
X117357142Y-32309523D01*
X117404761Y-32357142D01*
X117452380Y-32452380D01*
X117452380Y-32547619D01*
X117404761Y-32642857D01*
X117357142Y-32690476D01*
X117261904Y-32738095D01*
X117071428Y-32785714D01*
X116833333Y-32785714D01*
X116642857Y-32738095D01*
X116547619Y-32690476D01*
X116500000Y-32642857D01*
X116452380Y-32547619D01*
X116547619Y-31833333D02*
X116500000Y-31785714D01*
X116452380Y-31690476D01*
X116452380Y-31452380D01*
X116500000Y-31357142D01*
X116547619Y-31309523D01*
X116642857Y-31261904D01*
X116738095Y-31261904D01*
X116880952Y-31309523D01*
X117452380Y-31880952D01*
X117452380Y-31261904D01*
%TO.C,D062*%
X117452380Y-95690476D02*
X116452380Y-95690476D01*
X116452380Y-95452380D01*
X116500000Y-95309523D01*
X116595238Y-95214285D01*
X116690476Y-95166666D01*
X116880952Y-95119047D01*
X117023809Y-95119047D01*
X117214285Y-95166666D01*
X117309523Y-95214285D01*
X117404761Y-95309523D01*
X117452380Y-95452380D01*
X117452380Y-95690476D01*
X116452380Y-94500000D02*
X116452380Y-94404761D01*
X116500000Y-94309523D01*
X116547619Y-94261904D01*
X116642857Y-94214285D01*
X116833333Y-94166666D01*
X117071428Y-94166666D01*
X117261904Y-94214285D01*
X117357142Y-94261904D01*
X117404761Y-94309523D01*
X117452380Y-94404761D01*
X117452380Y-94500000D01*
X117404761Y-94595238D01*
X117357142Y-94642857D01*
X117261904Y-94690476D01*
X117071428Y-94738095D01*
X116833333Y-94738095D01*
X116642857Y-94690476D01*
X116547619Y-94642857D01*
X116500000Y-94595238D01*
X116452380Y-94500000D01*
X116452380Y-93309523D02*
X116452380Y-93500000D01*
X116500000Y-93595238D01*
X116547619Y-93642857D01*
X116690476Y-93738095D01*
X116880952Y-93785714D01*
X117261904Y-93785714D01*
X117357142Y-93738095D01*
X117404761Y-93690476D01*
X117452380Y-93595238D01*
X117452380Y-93404761D01*
X117404761Y-93309523D01*
X117357142Y-93261904D01*
X117261904Y-93214285D01*
X117023809Y-93214285D01*
X116928571Y-93261904D01*
X116880952Y-93309523D01*
X116833333Y-93404761D01*
X116833333Y-93595238D01*
X116880952Y-93690476D01*
X116928571Y-93738095D01*
X117023809Y-93785714D01*
X116547619Y-92833333D02*
X116500000Y-92785714D01*
X116452380Y-92690476D01*
X116452380Y-92452380D01*
X116500000Y-92357142D01*
X116547619Y-92309523D01*
X116642857Y-92261904D01*
X116738095Y-92261904D01*
X116880952Y-92309523D01*
X117452380Y-92880952D01*
X117452380Y-92261904D01*
%TO.C,D072*%
X117452380Y-105690476D02*
X116452380Y-105690476D01*
X116452380Y-105452380D01*
X116500000Y-105309523D01*
X116595238Y-105214285D01*
X116690476Y-105166666D01*
X116880952Y-105119047D01*
X117023809Y-105119047D01*
X117214285Y-105166666D01*
X117309523Y-105214285D01*
X117404761Y-105309523D01*
X117452380Y-105452380D01*
X117452380Y-105690476D01*
X116452380Y-104500000D02*
X116452380Y-104404761D01*
X116500000Y-104309523D01*
X116547619Y-104261904D01*
X116642857Y-104214285D01*
X116833333Y-104166666D01*
X117071428Y-104166666D01*
X117261904Y-104214285D01*
X117357142Y-104261904D01*
X117404761Y-104309523D01*
X117452380Y-104404761D01*
X117452380Y-104500000D01*
X117404761Y-104595238D01*
X117357142Y-104642857D01*
X117261904Y-104690476D01*
X117071428Y-104738095D01*
X116833333Y-104738095D01*
X116642857Y-104690476D01*
X116547619Y-104642857D01*
X116500000Y-104595238D01*
X116452380Y-104500000D01*
X116452380Y-103833333D02*
X116452380Y-103166666D01*
X117452380Y-103595238D01*
X116547619Y-102833333D02*
X116500000Y-102785714D01*
X116452380Y-102690476D01*
X116452380Y-102452380D01*
X116500000Y-102357142D01*
X116547619Y-102309523D01*
X116642857Y-102261904D01*
X116738095Y-102261904D01*
X116880952Y-102309523D01*
X117452380Y-102880952D01*
X117452380Y-102261904D01*
%TO.C,D042*%
X117452380Y-75690476D02*
X116452380Y-75690476D01*
X116452380Y-75452380D01*
X116500000Y-75309523D01*
X116595238Y-75214285D01*
X116690476Y-75166666D01*
X116880952Y-75119047D01*
X117023809Y-75119047D01*
X117214285Y-75166666D01*
X117309523Y-75214285D01*
X117404761Y-75309523D01*
X117452380Y-75452380D01*
X117452380Y-75690476D01*
X116452380Y-74500000D02*
X116452380Y-74404761D01*
X116500000Y-74309523D01*
X116547619Y-74261904D01*
X116642857Y-74214285D01*
X116833333Y-74166666D01*
X117071428Y-74166666D01*
X117261904Y-74214285D01*
X117357142Y-74261904D01*
X117404761Y-74309523D01*
X117452380Y-74404761D01*
X117452380Y-74500000D01*
X117404761Y-74595238D01*
X117357142Y-74642857D01*
X117261904Y-74690476D01*
X117071428Y-74738095D01*
X116833333Y-74738095D01*
X116642857Y-74690476D01*
X116547619Y-74642857D01*
X116500000Y-74595238D01*
X116452380Y-74500000D01*
X116785714Y-73309523D02*
X117452380Y-73309523D01*
X116404761Y-73547619D02*
X117119047Y-73785714D01*
X117119047Y-73166666D01*
X116547619Y-72833333D02*
X116500000Y-72785714D01*
X116452380Y-72690476D01*
X116452380Y-72452380D01*
X116500000Y-72357142D01*
X116547619Y-72309523D01*
X116642857Y-72261904D01*
X116738095Y-72261904D01*
X116880952Y-72309523D01*
X117452380Y-72880952D01*
X117452380Y-72261904D01*
%TO.C,D012*%
X117452380Y-45690476D02*
X116452380Y-45690476D01*
X116452380Y-45452380D01*
X116500000Y-45309523D01*
X116595238Y-45214285D01*
X116690476Y-45166666D01*
X116880952Y-45119047D01*
X117023809Y-45119047D01*
X117214285Y-45166666D01*
X117309523Y-45214285D01*
X117404761Y-45309523D01*
X117452380Y-45452380D01*
X117452380Y-45690476D01*
X116452380Y-44500000D02*
X116452380Y-44404761D01*
X116500000Y-44309523D01*
X116547619Y-44261904D01*
X116642857Y-44214285D01*
X116833333Y-44166666D01*
X117071428Y-44166666D01*
X117261904Y-44214285D01*
X117357142Y-44261904D01*
X117404761Y-44309523D01*
X117452380Y-44404761D01*
X117452380Y-44500000D01*
X117404761Y-44595238D01*
X117357142Y-44642857D01*
X117261904Y-44690476D01*
X117071428Y-44738095D01*
X116833333Y-44738095D01*
X116642857Y-44690476D01*
X116547619Y-44642857D01*
X116500000Y-44595238D01*
X116452380Y-44500000D01*
X117452380Y-43214285D02*
X117452380Y-43785714D01*
X117452380Y-43500000D02*
X116452380Y-43500000D01*
X116595238Y-43595238D01*
X116690476Y-43690476D01*
X116738095Y-43785714D01*
X116547619Y-42833333D02*
X116500000Y-42785714D01*
X116452380Y-42690476D01*
X116452380Y-42452380D01*
X116500000Y-42357142D01*
X116547619Y-42309523D01*
X116642857Y-42261904D01*
X116738095Y-42261904D01*
X116880952Y-42309523D01*
X117452380Y-42880952D01*
X117452380Y-42261904D01*
%TO.C,D032*%
X117452380Y-65690476D02*
X116452380Y-65690476D01*
X116452380Y-65452380D01*
X116500000Y-65309523D01*
X116595238Y-65214285D01*
X116690476Y-65166666D01*
X116880952Y-65119047D01*
X117023809Y-65119047D01*
X117214285Y-65166666D01*
X117309523Y-65214285D01*
X117404761Y-65309523D01*
X117452380Y-65452380D01*
X117452380Y-65690476D01*
X116452380Y-64500000D02*
X116452380Y-64404761D01*
X116500000Y-64309523D01*
X116547619Y-64261904D01*
X116642857Y-64214285D01*
X116833333Y-64166666D01*
X117071428Y-64166666D01*
X117261904Y-64214285D01*
X117357142Y-64261904D01*
X117404761Y-64309523D01*
X117452380Y-64404761D01*
X117452380Y-64500000D01*
X117404761Y-64595238D01*
X117357142Y-64642857D01*
X117261904Y-64690476D01*
X117071428Y-64738095D01*
X116833333Y-64738095D01*
X116642857Y-64690476D01*
X116547619Y-64642857D01*
X116500000Y-64595238D01*
X116452380Y-64500000D01*
X116452380Y-63833333D02*
X116452380Y-63214285D01*
X116833333Y-63547619D01*
X116833333Y-63404761D01*
X116880952Y-63309523D01*
X116928571Y-63261904D01*
X117023809Y-63214285D01*
X117261904Y-63214285D01*
X117357142Y-63261904D01*
X117404761Y-63309523D01*
X117452380Y-63404761D01*
X117452380Y-63690476D01*
X117404761Y-63785714D01*
X117357142Y-63833333D01*
X116547619Y-62833333D02*
X116500000Y-62785714D01*
X116452380Y-62690476D01*
X116452380Y-62452380D01*
X116500000Y-62357142D01*
X116547619Y-62309523D01*
X116642857Y-62261904D01*
X116738095Y-62261904D01*
X116880952Y-62309523D01*
X117452380Y-62880952D01*
X117452380Y-62261904D01*
%TO.C,D122*%
X117452380Y-155690476D02*
X116452380Y-155690476D01*
X116452380Y-155452380D01*
X116500000Y-155309523D01*
X116595238Y-155214285D01*
X116690476Y-155166666D01*
X116880952Y-155119047D01*
X117023809Y-155119047D01*
X117214285Y-155166666D01*
X117309523Y-155214285D01*
X117404761Y-155309523D01*
X117452380Y-155452380D01*
X117452380Y-155690476D01*
X117452380Y-154166666D02*
X117452380Y-154738095D01*
X117452380Y-154452380D02*
X116452380Y-154452380D01*
X116595238Y-154547619D01*
X116690476Y-154642857D01*
X116738095Y-154738095D01*
X116547619Y-153785714D02*
X116500000Y-153738095D01*
X116452380Y-153642857D01*
X116452380Y-153404761D01*
X116500000Y-153309523D01*
X116547619Y-153261904D01*
X116642857Y-153214285D01*
X116738095Y-153214285D01*
X116880952Y-153261904D01*
X117452380Y-153833333D01*
X117452380Y-153214285D01*
X116547619Y-152833333D02*
X116500000Y-152785714D01*
X116452380Y-152690476D01*
X116452380Y-152452380D01*
X116500000Y-152357142D01*
X116547619Y-152309523D01*
X116642857Y-152261904D01*
X116738095Y-152261904D01*
X116880952Y-152309523D01*
X117452380Y-152880952D01*
X117452380Y-152261904D01*
%TO.C,D082*%
X117452380Y-115690476D02*
X116452380Y-115690476D01*
X116452380Y-115452380D01*
X116500000Y-115309523D01*
X116595238Y-115214285D01*
X116690476Y-115166666D01*
X116880952Y-115119047D01*
X117023809Y-115119047D01*
X117214285Y-115166666D01*
X117309523Y-115214285D01*
X117404761Y-115309523D01*
X117452380Y-115452380D01*
X117452380Y-115690476D01*
X116452380Y-114500000D02*
X116452380Y-114404761D01*
X116500000Y-114309523D01*
X116547619Y-114261904D01*
X116642857Y-114214285D01*
X116833333Y-114166666D01*
X117071428Y-114166666D01*
X117261904Y-114214285D01*
X117357142Y-114261904D01*
X117404761Y-114309523D01*
X117452380Y-114404761D01*
X117452380Y-114500000D01*
X117404761Y-114595238D01*
X117357142Y-114642857D01*
X117261904Y-114690476D01*
X117071428Y-114738095D01*
X116833333Y-114738095D01*
X116642857Y-114690476D01*
X116547619Y-114642857D01*
X116500000Y-114595238D01*
X116452380Y-114500000D01*
X116880952Y-113595238D02*
X116833333Y-113690476D01*
X116785714Y-113738095D01*
X116690476Y-113785714D01*
X116642857Y-113785714D01*
X116547619Y-113738095D01*
X116500000Y-113690476D01*
X116452380Y-113595238D01*
X116452380Y-113404761D01*
X116500000Y-113309523D01*
X116547619Y-113261904D01*
X116642857Y-113214285D01*
X116690476Y-113214285D01*
X116785714Y-113261904D01*
X116833333Y-113309523D01*
X116880952Y-113404761D01*
X116880952Y-113595238D01*
X116928571Y-113690476D01*
X116976190Y-113738095D01*
X117071428Y-113785714D01*
X117261904Y-113785714D01*
X117357142Y-113738095D01*
X117404761Y-113690476D01*
X117452380Y-113595238D01*
X117452380Y-113404761D01*
X117404761Y-113309523D01*
X117357142Y-113261904D01*
X117261904Y-113214285D01*
X117071428Y-113214285D01*
X116976190Y-113261904D01*
X116928571Y-113309523D01*
X116880952Y-113404761D01*
X116547619Y-112833333D02*
X116500000Y-112785714D01*
X116452380Y-112690476D01*
X116452380Y-112452380D01*
X116500000Y-112357142D01*
X116547619Y-112309523D01*
X116642857Y-112261904D01*
X116738095Y-112261904D01*
X116880952Y-112309523D01*
X117452380Y-112880952D01*
X117452380Y-112261904D01*
%TO.C,D052*%
X117452380Y-85690476D02*
X116452380Y-85690476D01*
X116452380Y-85452380D01*
X116500000Y-85309523D01*
X116595238Y-85214285D01*
X116690476Y-85166666D01*
X116880952Y-85119047D01*
X117023809Y-85119047D01*
X117214285Y-85166666D01*
X117309523Y-85214285D01*
X117404761Y-85309523D01*
X117452380Y-85452380D01*
X117452380Y-85690476D01*
X116452380Y-84500000D02*
X116452380Y-84404761D01*
X116500000Y-84309523D01*
X116547619Y-84261904D01*
X116642857Y-84214285D01*
X116833333Y-84166666D01*
X117071428Y-84166666D01*
X117261904Y-84214285D01*
X117357142Y-84261904D01*
X117404761Y-84309523D01*
X117452380Y-84404761D01*
X117452380Y-84500000D01*
X117404761Y-84595238D01*
X117357142Y-84642857D01*
X117261904Y-84690476D01*
X117071428Y-84738095D01*
X116833333Y-84738095D01*
X116642857Y-84690476D01*
X116547619Y-84642857D01*
X116500000Y-84595238D01*
X116452380Y-84500000D01*
X116452380Y-83261904D02*
X116452380Y-83738095D01*
X116928571Y-83785714D01*
X116880952Y-83738095D01*
X116833333Y-83642857D01*
X116833333Y-83404761D01*
X116880952Y-83309523D01*
X116928571Y-83261904D01*
X117023809Y-83214285D01*
X117261904Y-83214285D01*
X117357142Y-83261904D01*
X117404761Y-83309523D01*
X117452380Y-83404761D01*
X117452380Y-83642857D01*
X117404761Y-83738095D01*
X117357142Y-83785714D01*
X116547619Y-82833333D02*
X116500000Y-82785714D01*
X116452380Y-82690476D01*
X116452380Y-82452380D01*
X116500000Y-82357142D01*
X116547619Y-82309523D01*
X116642857Y-82261904D01*
X116738095Y-82261904D01*
X116880952Y-82309523D01*
X117452380Y-82880952D01*
X117452380Y-82261904D01*
%TO.C,D142*%
X117452380Y-185690476D02*
X116452380Y-185690476D01*
X116452380Y-185452380D01*
X116500000Y-185309523D01*
X116595238Y-185214285D01*
X116690476Y-185166666D01*
X116880952Y-185119047D01*
X117023809Y-185119047D01*
X117214285Y-185166666D01*
X117309523Y-185214285D01*
X117404761Y-185309523D01*
X117452380Y-185452380D01*
X117452380Y-185690476D01*
X117452380Y-184166666D02*
X117452380Y-184738095D01*
X117452380Y-184452380D02*
X116452380Y-184452380D01*
X116595238Y-184547619D01*
X116690476Y-184642857D01*
X116738095Y-184738095D01*
X116785714Y-183309523D02*
X117452380Y-183309523D01*
X116404761Y-183547619D02*
X117119047Y-183785714D01*
X117119047Y-183166666D01*
X116547619Y-182833333D02*
X116500000Y-182785714D01*
X116452380Y-182690476D01*
X116452380Y-182452380D01*
X116500000Y-182357142D01*
X116547619Y-182309523D01*
X116642857Y-182261904D01*
X116738095Y-182261904D01*
X116880952Y-182309523D01*
X117452380Y-182880952D01*
X117452380Y-182261904D01*
D11*
%TO.C,D151*%
X122010000Y-166970000D02*
X118850000Y-166970000D01*
X122010000Y-170130000D02*
X122010000Y-169200000D01*
X122010000Y-170130000D02*
X120550000Y-170130000D01*
X122010000Y-166970000D02*
X122010000Y-167900000D01*
%TO.C,D141*%
X122010000Y-176970000D02*
X122010000Y-177900000D01*
X122010000Y-180130000D02*
X120550000Y-180130000D01*
X122010000Y-180130000D02*
X122010000Y-179200000D01*
X122010000Y-176970000D02*
X118850000Y-176970000D01*
%TO.C,D131*%
X122010000Y-156920000D02*
X118850000Y-156920000D01*
X122010000Y-160080000D02*
X122010000Y-159150000D01*
X122010000Y-160080000D02*
X120550000Y-160080000D01*
X122010000Y-156920000D02*
X122010000Y-157850000D01*
%TO.C,D121*%
X122010000Y-146920000D02*
X118850000Y-146920000D01*
X122010000Y-150080000D02*
X122010000Y-149150000D01*
X122010000Y-150080000D02*
X120550000Y-150080000D01*
X122010000Y-146920000D02*
X122010000Y-147850000D01*
%TO.C,D111*%
X122010000Y-136920000D02*
X118850000Y-136920000D01*
X122010000Y-140080000D02*
X122010000Y-139150000D01*
X122010000Y-140080000D02*
X120550000Y-140080000D01*
X122010000Y-136920000D02*
X122010000Y-137850000D01*
%TO.C,D101*%
X122010000Y-126920000D02*
X122010000Y-127850000D01*
X122010000Y-130080000D02*
X120550000Y-130080000D01*
X122010000Y-130080000D02*
X122010000Y-129150000D01*
X122010000Y-126920000D02*
X118850000Y-126920000D01*
%TO.C,D091*%
X122010000Y-116920000D02*
X118850000Y-116920000D01*
X122010000Y-120080000D02*
X122010000Y-119150000D01*
X122010000Y-120080000D02*
X120550000Y-120080000D01*
X122010000Y-116920000D02*
X122010000Y-117850000D01*
%TO.C,D081*%
X122010000Y-106870000D02*
X118850000Y-106870000D01*
X122010000Y-110030000D02*
X122010000Y-109100000D01*
X122010000Y-110030000D02*
X120550000Y-110030000D01*
X122010000Y-106870000D02*
X122010000Y-107800000D01*
%TO.C,D071*%
X122010000Y-96970000D02*
X118850000Y-96970000D01*
X122010000Y-100130000D02*
X122010000Y-99200000D01*
X122010000Y-100130000D02*
X120550000Y-100130000D01*
X122010000Y-96970000D02*
X122010000Y-97900000D01*
%TO.C,D061*%
X122010000Y-86920000D02*
X118850000Y-86920000D01*
X122010000Y-90080000D02*
X122010000Y-89150000D01*
X122010000Y-90080000D02*
X120550000Y-90080000D01*
X122010000Y-86920000D02*
X122010000Y-87850000D01*
%TO.C,D051*%
X122010000Y-76970000D02*
X118850000Y-76970000D01*
X122010000Y-80130000D02*
X122010000Y-79200000D01*
X122010000Y-80130000D02*
X120550000Y-80130000D01*
X122010000Y-76970000D02*
X122010000Y-77900000D01*
%TO.C,D041*%
X122010000Y-66920000D02*
X122010000Y-67850000D01*
X122010000Y-70080000D02*
X120550000Y-70080000D01*
X122010000Y-70080000D02*
X122010000Y-69150000D01*
X122010000Y-66920000D02*
X118850000Y-66920000D01*
%TO.C,D031*%
X122010000Y-56920000D02*
X118850000Y-56920000D01*
X122010000Y-60080000D02*
X122010000Y-59150000D01*
X122010000Y-60080000D02*
X120550000Y-60080000D01*
X122010000Y-56920000D02*
X122010000Y-57850000D01*
%TO.C,D021*%
X122010000Y-46970000D02*
X118850000Y-46970000D01*
X122010000Y-50130000D02*
X122010000Y-49200000D01*
X122010000Y-50130000D02*
X120550000Y-50130000D01*
X122010000Y-46970000D02*
X122010000Y-47900000D01*
%TO.C,D011*%
X122010000Y-36920000D02*
X122010000Y-37850000D01*
X122010000Y-40080000D02*
X120550000Y-40080000D01*
X122010000Y-40080000D02*
X122010000Y-39150000D01*
X122010000Y-36920000D02*
X118850000Y-36920000D01*
%TO.C,D001*%
X122010000Y-26920000D02*
X118850000Y-26920000D01*
X122010000Y-30080000D02*
X122010000Y-29150000D01*
X122010000Y-30080000D02*
X120550000Y-30080000D01*
X122010000Y-26920000D02*
X122010000Y-27850000D01*
%TO.C,D022*%
X118710000Y-51955000D02*
X118710000Y-55045000D01*
X124260000Y-53500462D02*
G75*
G03*
X118710000Y-51955170I-2990000J462D01*
G01*
X118710000Y-55044830D02*
G75*
G03*
X124260000Y-53499538I2560000J1544830D01*
G01*
X123770000Y-53500000D02*
G75*
G03*
X123770000Y-53500000I-2500000J0D01*
G01*
%TO.C,D092*%
X118685000Y-121955000D02*
X118685000Y-125045000D01*
X124235000Y-123500462D02*
G75*
G03*
X118685000Y-121955170I-2990000J462D01*
G01*
X118685000Y-125044830D02*
G75*
G03*
X124235000Y-123499538I2560000J1544830D01*
G01*
X123745000Y-123500000D02*
G75*
G03*
X123745000Y-123500000I-2500000J0D01*
G01*
%TO.C,D112*%
X118685000Y-141955000D02*
X118685000Y-145045000D01*
X118685000Y-145044830D02*
G75*
G03*
X124235000Y-143499538I2560000J1544830D01*
G01*
X124235000Y-143500462D02*
G75*
G03*
X118685000Y-141955170I-2990000J462D01*
G01*
X123745000Y-143500000D02*
G75*
G03*
X123745000Y-143500000I-2500000J0D01*
G01*
%TO.C,D102*%
X118685000Y-131955000D02*
X118685000Y-135045000D01*
X118685000Y-135044830D02*
G75*
G03*
X124235000Y-133499538I2560000J1544830D01*
G01*
X124235000Y-133500462D02*
G75*
G03*
X118685000Y-131955170I-2990000J462D01*
G01*
X123745000Y-133500000D02*
G75*
G03*
X123745000Y-133500000I-2500000J0D01*
G01*
%TO.C,D132*%
X118685000Y-161955000D02*
X118685000Y-165045000D01*
X118685000Y-165044830D02*
G75*
G03*
X124235000Y-163499538I2560000J1544830D01*
G01*
X124235000Y-163500462D02*
G75*
G03*
X118685000Y-161955170I-2990000J462D01*
G01*
X123745000Y-163500000D02*
G75*
G03*
X123745000Y-163500000I-2500000J0D01*
G01*
%TO.C,D152*%
X118710000Y-171955000D02*
X118710000Y-175045000D01*
X118710000Y-175044830D02*
G75*
G03*
X124260000Y-173499538I2560000J1544830D01*
G01*
X124260000Y-173500462D02*
G75*
G03*
X118710000Y-171955170I-2990000J462D01*
G01*
X123770000Y-173500000D02*
G75*
G03*
X123770000Y-173500000I-2500000J0D01*
G01*
%TO.C,D002*%
X118685000Y-31955000D02*
X118685000Y-35045000D01*
X124235000Y-33500462D02*
G75*
G03*
X118685000Y-31955170I-2990000J462D01*
G01*
X118685000Y-35044830D02*
G75*
G03*
X124235000Y-33499538I2560000J1544830D01*
G01*
X123745000Y-33500000D02*
G75*
G03*
X123745000Y-33500000I-2500000J0D01*
G01*
%TO.C,D062*%
X118685000Y-91955000D02*
X118685000Y-95045000D01*
X118685000Y-95044830D02*
G75*
G03*
X124235000Y-93499538I2560000J1544830D01*
G01*
X124235000Y-93500462D02*
G75*
G03*
X118685000Y-91955170I-2990000J462D01*
G01*
X123745000Y-93500000D02*
G75*
G03*
X123745000Y-93500000I-2500000J0D01*
G01*
%TO.C,D072*%
X118685000Y-101955000D02*
X118685000Y-105045000D01*
X118685000Y-105044830D02*
G75*
G03*
X124235000Y-103499538I2560000J1544830D01*
G01*
X124235000Y-103500462D02*
G75*
G03*
X118685000Y-101955170I-2990000J462D01*
G01*
X123745000Y-103500000D02*
G75*
G03*
X123745000Y-103500000I-2500000J0D01*
G01*
%TO.C,D042*%
X118685000Y-71955000D02*
X118685000Y-75045000D01*
X124235000Y-73500462D02*
G75*
G03*
X118685000Y-71955170I-2990000J462D01*
G01*
X118685000Y-75044830D02*
G75*
G03*
X124235000Y-73499538I2560000J1544830D01*
G01*
X123745000Y-73500000D02*
G75*
G03*
X123745000Y-73500000I-2500000J0D01*
G01*
%TO.C,D012*%
X118670000Y-41955000D02*
X118670000Y-45045000D01*
X124220000Y-43500462D02*
G75*
G03*
X118670000Y-41955170I-2990000J462D01*
G01*
X118670000Y-45044830D02*
G75*
G03*
X124220000Y-43499538I2560000J1544830D01*
G01*
X123730000Y-43500000D02*
G75*
G03*
X123730000Y-43500000I-2500000J0D01*
G01*
%TO.C,D032*%
X118710000Y-61955000D02*
X118710000Y-65045000D01*
X124260000Y-63500462D02*
G75*
G03*
X118710000Y-61955170I-2990000J462D01*
G01*
X118710000Y-65044830D02*
G75*
G03*
X124260000Y-63499538I2560000J1544830D01*
G01*
X123770000Y-63500000D02*
G75*
G03*
X123770000Y-63500000I-2500000J0D01*
G01*
%TO.C,D122*%
X123745000Y-153500000D02*
G75*
G03*
X123745000Y-153500000I-2500000J0D01*
G01*
X124235000Y-153500462D02*
G75*
G03*
X118685000Y-151955170I-2990000J462D01*
G01*
X118685000Y-155044830D02*
G75*
G03*
X124235000Y-153499538I2560000J1544830D01*
G01*
X118685000Y-151955000D02*
X118685000Y-155045000D01*
%TO.C,D082*%
X118685000Y-111955000D02*
X118685000Y-115045000D01*
X118685000Y-115044830D02*
G75*
G03*
X124235000Y-113499538I2560000J1544830D01*
G01*
X124235000Y-113500462D02*
G75*
G03*
X118685000Y-111955170I-2990000J462D01*
G01*
X123745000Y-113500000D02*
G75*
G03*
X123745000Y-113500000I-2500000J0D01*
G01*
%TO.C,D052*%
X118685000Y-81955000D02*
X118685000Y-85045000D01*
X118685000Y-85044830D02*
G75*
G03*
X124235000Y-83499538I2560000J1544830D01*
G01*
X124235000Y-83500462D02*
G75*
G03*
X118685000Y-81955170I-2990000J462D01*
G01*
X123745000Y-83500000D02*
G75*
G03*
X123745000Y-83500000I-2500000J0D01*
G01*
%TO.C,D142*%
X118710000Y-181955000D02*
X118710000Y-185045000D01*
X124260000Y-183500462D02*
G75*
G03*
X118710000Y-181955170I-2990000J462D01*
G01*
X118710000Y-185044830D02*
G75*
G03*
X124260000Y-183499538I2560000J1544830D01*
G01*
X123770000Y-183500000D02*
G75*
G03*
X123770000Y-183500000I-2500000J0D01*
G01*
%TD*%
M02*
