%TF.GenerationSoftware,KiCad,Pcbnew,6.0.1-79c1e3a40b~116~ubuntu20.04.1*%
%TF.CreationDate,2022-07-06T20:39:24+09:00*%
%TF.ProjectId,test-rectenna-2p4g-pcb,74657374-2d72-4656-9374-656e6e612d32,1.0*%
%TF.SameCoordinates,Original*%
%TF.FileFunction,Profile,NP*%
%FSLAX46Y46*%
G04 Gerber Fmt 4.6, Leading zero omitted, Abs format (unit mm)*
G04 Created by KiCad (PCBNEW 6.0.1-79c1e3a40b~116~ubuntu20.04.1) date 2022-07-06 20:39:24*
%MOMM*%
%LPD*%
G01*
G04 APERTURE LIST*
%ADD10C,0.150000*%
%TA.AperFunction,Profile*%
%ADD11C,0.100000*%
%TD*%
G04 APERTURE END LIST*
D10*
X80302380Y-111023809D02*
X80302380Y-111595238D01*
X80302380Y-111309523D02*
X79302380Y-111309523D01*
X79445238Y-111404761D01*
X79540476Y-111500000D01*
X79588095Y-111595238D01*
X79302380Y-110166666D02*
X79302380Y-110357142D01*
X79350000Y-110452380D01*
X79397619Y-110500000D01*
X79540476Y-110595238D01*
X79730952Y-110642857D01*
X80111904Y-110642857D01*
X80207142Y-110595238D01*
X80254761Y-110547619D01*
X80302380Y-110452380D01*
X80302380Y-110261904D01*
X80254761Y-110166666D01*
X80207142Y-110119047D01*
X80111904Y-110071428D01*
X79873809Y-110071428D01*
X79778571Y-110119047D01*
X79730952Y-110166666D01*
X79683333Y-110261904D01*
X79683333Y-110452380D01*
X79730952Y-110547619D01*
X79778571Y-110595238D01*
X79873809Y-110642857D01*
X80302380Y-109119047D02*
X80302380Y-109690476D01*
X80302380Y-109404761D02*
X79302380Y-109404761D01*
X79445238Y-109500000D01*
X79540476Y-109595238D01*
X79588095Y-109690476D01*
X80207142Y-108690476D02*
X80254761Y-108642857D01*
X80302380Y-108690476D01*
X80254761Y-108738095D01*
X80207142Y-108690476D01*
X80302380Y-108690476D01*
X79302380Y-108023809D02*
X79302380Y-107928571D01*
X79350000Y-107833333D01*
X79397619Y-107785714D01*
X79492857Y-107738095D01*
X79683333Y-107690476D01*
X79921428Y-107690476D01*
X80111904Y-107738095D01*
X80207142Y-107785714D01*
X80254761Y-107833333D01*
X80302380Y-107928571D01*
X80302380Y-108023809D01*
X80254761Y-108119047D01*
X80207142Y-108166666D01*
X80111904Y-108214285D01*
X79921428Y-108261904D01*
X79683333Y-108261904D01*
X79492857Y-108214285D01*
X79397619Y-108166666D01*
X79350000Y-108119047D01*
X79302380Y-108023809D01*
X79302380Y-107071428D02*
X79302380Y-106976190D01*
X79350000Y-106880952D01*
X79397619Y-106833333D01*
X79492857Y-106785714D01*
X79683333Y-106738095D01*
X79921428Y-106738095D01*
X80111904Y-106785714D01*
X80207142Y-106833333D01*
X80254761Y-106880952D01*
X80302380Y-106976190D01*
X80302380Y-107071428D01*
X80254761Y-107166666D01*
X80207142Y-107214285D01*
X80111904Y-107261904D01*
X79921428Y-107309523D01*
X79683333Y-107309523D01*
X79492857Y-107261904D01*
X79397619Y-107214285D01*
X79350000Y-107166666D01*
X79302380Y-107071428D01*
X79302380Y-106119047D02*
X79302380Y-106023809D01*
X79350000Y-105928571D01*
X79397619Y-105880952D01*
X79492857Y-105833333D01*
X79683333Y-105785714D01*
X79921428Y-105785714D01*
X80111904Y-105833333D01*
X80207142Y-105880952D01*
X80254761Y-105928571D01*
X80302380Y-106023809D01*
X80302380Y-106119047D01*
X80254761Y-106214285D01*
X80207142Y-106261904D01*
X80111904Y-106309523D01*
X79921428Y-106357142D01*
X79683333Y-106357142D01*
X79492857Y-106309523D01*
X79397619Y-106261904D01*
X79350000Y-106214285D01*
X79302380Y-106119047D01*
X79302380Y-105166666D02*
X79302380Y-105071428D01*
X79350000Y-104976190D01*
X79397619Y-104928571D01*
X79492857Y-104880952D01*
X79683333Y-104833333D01*
X79921428Y-104833333D01*
X80111904Y-104880952D01*
X80207142Y-104928571D01*
X80254761Y-104976190D01*
X80302380Y-105071428D01*
X80302380Y-105166666D01*
X80254761Y-105261904D01*
X80207142Y-105309523D01*
X80111904Y-105357142D01*
X79921428Y-105404761D01*
X79683333Y-105404761D01*
X79492857Y-105357142D01*
X79397619Y-105309523D01*
X79350000Y-105261904D01*
X79302380Y-105166666D01*
X80302380Y-103642857D02*
X79635714Y-103642857D01*
X79730952Y-103642857D02*
X79683333Y-103595238D01*
X79635714Y-103500000D01*
X79635714Y-103357142D01*
X79683333Y-103261904D01*
X79778571Y-103214285D01*
X80302380Y-103214285D01*
X79778571Y-103214285D02*
X79683333Y-103166666D01*
X79635714Y-103071428D01*
X79635714Y-102928571D01*
X79683333Y-102833333D01*
X79778571Y-102785714D01*
X80302380Y-102785714D01*
X80302380Y-102309523D02*
X79635714Y-102309523D01*
X79730952Y-102309523D02*
X79683333Y-102261904D01*
X79635714Y-102166666D01*
X79635714Y-102023809D01*
X79683333Y-101928571D01*
X79778571Y-101880952D01*
X80302380Y-101880952D01*
X79778571Y-101880952D02*
X79683333Y-101833333D01*
X79635714Y-101738095D01*
X79635714Y-101595238D01*
X79683333Y-101500000D01*
X79778571Y-101452380D01*
X80302380Y-101452380D01*
D11*
X87500000Y-26000000D02*
X80413580Y-26000000D01*
X87500000Y-187000000D02*
X80413580Y-187000000D01*
X81000000Y-26000000D02*
X81000000Y-187000000D01*
X81000000Y-26000000D02*
X81000000Y-187000000D01*
X81000000Y-26000000D02*
X80413579Y-27126504D01*
X81000000Y-26000000D02*
X81586421Y-27126504D01*
X81000000Y-187000000D02*
X81586421Y-185873496D01*
X81000000Y-187000000D02*
X80413579Y-185873496D01*
D10*
X117357142Y-19302380D02*
X117166666Y-19302380D01*
X117071428Y-19350000D01*
X117023809Y-19397619D01*
X116928571Y-19540476D01*
X116880952Y-19730952D01*
X116880952Y-20111904D01*
X116928571Y-20207142D01*
X116976190Y-20254761D01*
X117071428Y-20302380D01*
X117261904Y-20302380D01*
X117357142Y-20254761D01*
X117404761Y-20207142D01*
X117452380Y-20111904D01*
X117452380Y-19873809D01*
X117404761Y-19778571D01*
X117357142Y-19730952D01*
X117261904Y-19683333D01*
X117071428Y-19683333D01*
X116976190Y-19730952D01*
X116928571Y-19778571D01*
X116880952Y-19873809D01*
X117785714Y-19302380D02*
X118452380Y-19302380D01*
X118023809Y-20302380D01*
X118833333Y-20207142D02*
X118880952Y-20254761D01*
X118833333Y-20302380D01*
X118785714Y-20254761D01*
X118833333Y-20207142D01*
X118833333Y-20302380D01*
X119500000Y-19302380D02*
X119595238Y-19302380D01*
X119690476Y-19350000D01*
X119738095Y-19397619D01*
X119785714Y-19492857D01*
X119833333Y-19683333D01*
X119833333Y-19921428D01*
X119785714Y-20111904D01*
X119738095Y-20207142D01*
X119690476Y-20254761D01*
X119595238Y-20302380D01*
X119500000Y-20302380D01*
X119404761Y-20254761D01*
X119357142Y-20207142D01*
X119309523Y-20111904D01*
X119261904Y-19921428D01*
X119261904Y-19683333D01*
X119309523Y-19492857D01*
X119357142Y-19397619D01*
X119404761Y-19350000D01*
X119500000Y-19302380D01*
X120452380Y-19302380D02*
X120547619Y-19302380D01*
X120642857Y-19350000D01*
X120690476Y-19397619D01*
X120738095Y-19492857D01*
X120785714Y-19683333D01*
X120785714Y-19921428D01*
X120738095Y-20111904D01*
X120690476Y-20207142D01*
X120642857Y-20254761D01*
X120547619Y-20302380D01*
X120452380Y-20302380D01*
X120357142Y-20254761D01*
X120309523Y-20207142D01*
X120261904Y-20111904D01*
X120214285Y-19921428D01*
X120214285Y-19683333D01*
X120261904Y-19492857D01*
X120309523Y-19397619D01*
X120357142Y-19350000D01*
X120452380Y-19302380D01*
X121404761Y-19302380D02*
X121500000Y-19302380D01*
X121595238Y-19350000D01*
X121642857Y-19397619D01*
X121690476Y-19492857D01*
X121738095Y-19683333D01*
X121738095Y-19921428D01*
X121690476Y-20111904D01*
X121642857Y-20207142D01*
X121595238Y-20254761D01*
X121500000Y-20302380D01*
X121404761Y-20302380D01*
X121309523Y-20254761D01*
X121261904Y-20207142D01*
X121214285Y-20111904D01*
X121166666Y-19921428D01*
X121166666Y-19683333D01*
X121214285Y-19492857D01*
X121261904Y-19397619D01*
X121309523Y-19350000D01*
X121404761Y-19302380D01*
X122357142Y-19302380D02*
X122452380Y-19302380D01*
X122547619Y-19350000D01*
X122595238Y-19397619D01*
X122642857Y-19492857D01*
X122690476Y-19683333D01*
X122690476Y-19921428D01*
X122642857Y-20111904D01*
X122595238Y-20207142D01*
X122547619Y-20254761D01*
X122452380Y-20302380D01*
X122357142Y-20302380D01*
X122261904Y-20254761D01*
X122214285Y-20207142D01*
X122166666Y-20111904D01*
X122119047Y-19921428D01*
X122119047Y-19683333D01*
X122166666Y-19492857D01*
X122214285Y-19397619D01*
X122261904Y-19350000D01*
X122357142Y-19302380D01*
X123880952Y-20302380D02*
X123880952Y-19635714D01*
X123880952Y-19730952D02*
X123928571Y-19683333D01*
X124023809Y-19635714D01*
X124166666Y-19635714D01*
X124261904Y-19683333D01*
X124309523Y-19778571D01*
X124309523Y-20302380D01*
X124309523Y-19778571D02*
X124357142Y-19683333D01*
X124452380Y-19635714D01*
X124595238Y-19635714D01*
X124690476Y-19683333D01*
X124738095Y-19778571D01*
X124738095Y-20302380D01*
X125214285Y-20302380D02*
X125214285Y-19635714D01*
X125214285Y-19730952D02*
X125261904Y-19683333D01*
X125357142Y-19635714D01*
X125500000Y-19635714D01*
X125595238Y-19683333D01*
X125642857Y-19778571D01*
X125642857Y-20302380D01*
X125642857Y-19778571D02*
X125690476Y-19683333D01*
X125785714Y-19635714D01*
X125928571Y-19635714D01*
X126023809Y-19683333D01*
X126071428Y-19778571D01*
X126071428Y-20302380D01*
D11*
X88000000Y-25500000D02*
X88000000Y-20413580D01*
X155000000Y-25500000D02*
X155000000Y-20413580D01*
X88000000Y-21000000D02*
X155000000Y-21000000D01*
X88000000Y-21000000D02*
X155000000Y-21000000D01*
X88000000Y-21000000D02*
X89126504Y-21586421D01*
X88000000Y-21000000D02*
X89126504Y-20413579D01*
X155000000Y-21000000D02*
X153873496Y-20413579D01*
X155000000Y-21000000D02*
X153873496Y-21586421D01*
X88000000Y-187000000D02*
X88000000Y-26000000D01*
X155000000Y-187000000D02*
X88000000Y-187000000D01*
X155000000Y-26000000D02*
X155000000Y-187000000D01*
X88000000Y-26000000D02*
X155000000Y-26000000D01*
M02*
